/* XPM */
static char *_80c1ddb6b854dbfdbf1b4198bdb8a09vUHFYowljujQ7uXd[] = {
/* columns rows colors chars-per-pixel */
"64 64 256 2 ",
"   c black",
".  c #1F170B",
"X  c #170F07",
"o  c #4B4B4B",
"O  c white",
"+  c #1B1B1B",
"@  c #131313",
"#  c #0B0B0B",
"$  c #070707",
"%  c #2F371F",
"&  c #232B0F",
"*  c #171F07",
"=  c #0F1700",
"-  c #4F3B2B",
";  c #473323",
":  c #3F2B1B",
">  c #FFB7B7",
",  c #F7ABAB",
"<  c #F3A3A3",
"1  c #EB9797",
"2  c #E78F8F",
"3  c #DF8787",
"4  c #DB7B7B",
"5  c #D37373",
"6  c #CB6B6B",
"7  c #C76363",
"8  c #BF5B5B",
"9  c #BB5757",
"0  c #B34F4F",
"q  c #AF4747",
"w  c #A73F3F",
"e  c #A33B3B",
"r  c #9B3333",
"t  c #972F2F",
"y  c #8F2B2B",
"u  c #8B2323",
"i  c #831F1F",
"p  c #7F1B1B",
"a  c #771717",
"s  c #731313",
"d  c #6B0F0F",
"f  c #670B0B",
"g  c #5F0707",
"h  c #5B0707",
"j  c #530707",
"k  c #4F0000",
"l  c #470000",
"z  c #430000",
"x  c #FFEBDF",
"c  c #FFE3D3",
"v  c #FFDBC7",
"b  c #FFD3BB",
"n  c #FFCFB3",
"m  c #FFC7A7",
"M  c #FFBF9B",
"N  c #FFBB93",
"B  c #FFB383",
"V  c #F7AB7B",
"C  c #EFA373",
"Z  c #E79B6B",
"A  c #DF9363",
"S  c #D78B5B",
"D  c #CF8353",
"F  c #CB7F4F",
"G  c #BF7B4B",
"H  c #B37347",
"J  c #AB6F43",
"K  c #A36B3F",
"L  c #9B633B",
"P  c #8F5F37",
"I  c #875733",
"U  c #7F532F",
"Y  c #774F2B",
"T  c #6B4727",
"R  c #5F4323",
"E  c #533F1F",
"W  c #4B371B",
"Q  c #3F2F17",
"!  c #332B13",
"~  c #2B230F",
"^  c #EFEFEF",
"/  c #E7E7E7",
"(  c #DFDFDF",
")  c gray86",
"_  c LightGray",
"`  c #CBCBCB",
"'  c gray78",
"]  c gray75",
"[  c #B7B7B7",
"{  c gray70",
"}  c gray67",
"|  c #A7A7A7",
" . c #9F9F9F",
".. c #979797",
"X. c #939393",
"o. c #8B8B8B",
"O. c #838383",
"+. c gray50",
"@. c #777777",
"#. c #6F6F6F",
"$. c gray42",
"%. c gray39",
"&. c #5B5B5B",
"*. c gray34",
"=. c gray31",
"-. c gray28",
";. c #434343",
":. c gray23",
">. c #373737",
",. c #2F2F2F",
"<. c #272727",
"1. c #232323",
"2. c #77FF6F",
"3. c #6FEF67",
"4. c #67DF5F",
"5. c #5FCF57",
"6. c #5BBF4F",
"7. c #53AF47",
"8. c #4B9F3F",
"9. c #439337",
"0. c #3F832F",
"q. c #37732B",
"w. c #2F6323",
"e. c #27531B",
"r. c #1F4317",
"t. c #17330F",
"y. c #13230B",
"u. c #0B1707",
"i. c #BFA78F",
"p. c #B79F87",
"a. c #AF977F",
"s. c #A78F77",
"d. c #9F876F",
"f. c #9B7F6B",
"g. c #937B63",
"h. c #8B735B",
"j. c #836B57",
"k. c #7B634F",
"l. c #775F4B",
"z. c #6F5743",
"x. c #67533F",
"c. c #5F4B37",
"v. c #574333",
"b. c #533F2F",
"n. c #9F8363",
"m. c #8F7753",
"M. c #836B4B",
"N. c #775F3F",
"B. c #675333",
"V. c #5B472B",
"C. c #4F3B23",
"Z. c #43331B",
"A. c #7B7F63",
"S. c #6F7357",
"D. c #676B4F",
"F. c #5B6347",
"G. c #53573B",
"H. c #474F33",
"J. c #3F472B",
"K. c #373F27",
"L. c #FFFF73",
"P. c #EBDB57",
"I. c #D7BB43",
"U. c #C39B2F",
"Y. c #AF7B1F",
"T. c #9B5B13",
"R. c #874307",
"E. c #732B00",
"W. c white",
"Q. c #FFDBDB",
"!. c #FFBBBB",
"~. c #FF9B9B",
"^. c #FF7B7B",
"/. c #FF5F5F",
"(. c #FF3F3F",
"). c #FF1F1F",
"_. c red",
"`. c #EF0000",
"'. c #E30000",
"]. c #D70000",
"[. c #CB0000",
"{. c #BF0000",
"}. c #B30000",
"|. c #A70000",
" X c #9B0000",
".X c #8B0000",
"XX c #7F0000",
"oX c #730000",
"OX c #670000",
"+X c #5B0000",
"@X c #4F0000",
"#X c #430000",
"$X c #E7E7FF",
"%X c #C7C7FF",
"&X c #ABABFF",
"*X c #8F8FFF",
"=X c #7373FF",
"-X c #5353FF",
";X c #3737FF",
":X c #1B1BFF",
">X c blue",
",X c #0000E3",
"<X c #0000CB",
"1X c #0000B3",
"2X c #00009B",
"3X c #000083",
"4X c #00006B",
"5X c #000053",
"6X c white",
"7X c #FFEBDB",
"8X c #FFD7BB",
"9X c #FFC79B",
"0X c #FFB37B",
"qX c #FFA35B",
"wX c #FF8F3B",
"eX c #FF7F1B",
"rX c #F37317",
"tX c #EB6F0F",
"yX c #DF670F",
"uX c #D75F0B",
"iX c #CB5707",
"pX c #C34F00",
"aX c #B74700",
"sX c #AF4300",
"dX c white",
"fX c #FFFFD7",
"gX c #FFFFB3",
"hX c #FFFF8F",
"jX c #FFFF6B",
"kX c #FFFF47",
"lX c #FFFF23",
"zX c yellow",
"xX c #A73F00",
"cX c #9F3700",
"vX c #932F00",
"bX c #872300",
"nX c #4F3B27",
"mX c #432F1B",
"MX c #372313",
"NX c #2F1B0B",
"BX c #000053",
"VX c #000047",
"CX c #00003B",
"ZX c #00002F",
"AX c #000023",
"SX c #000017",
"DX c #00000B",
"FX c cyan",
"GX c #FF9F43",
"HX c #FFE74B",
"JX c #FF7BFF",
"KX c magenta",
"LX c #CF00CF",
"PX c #9F009B",
"IX c #6F006B",
"UX c #A76B6B",
/* pixels */
"-.*.-...| { ] _ _ _ _ _ _ _ _ _ _ _ _ _ _ _ _ _ _ _ _ _ ] { | ..-.*.-...| { ] _ _ _ _ _ _ _ _ _ _ _ _ _ _ _ _ _ _ _ _ _ ] { | ..",
"-.*.-.+.] ] ] ] ] ] ] ] ] ] ] ] { { { { ] { ] { ] { ] { ] { ] o.-.*.-.+.] ] ] ] ] ] ] ] ] ] ] ] { { { { ] { ] { ] { ] { ] { ] o.",
"-.*.-.+.] ] { +X+X+X+X+X+X+X+X+X+X+X+X+X+X+XQ Q W E E E E E E W Q ~ k +X+X+X+X+X+X+X+X+X+X+X+X+X+X+X+X+X+X+X+X+X+X+X+X+X{ ] { o.",
"-.*.-.+.{ { ] +X+X+X+X+X+X+X+X+X+X+X+Xk +XQ W E R R R R R E E E E W ! ~ ~ k k k +X+X+X+X+X+X+X+X+X+X+X+X+X+X+X+X+X+X+X+X+.| { o.",
"-.*.-.+.{ ] { +X+X+X+X+X+X+X+X+X+Xk +XE E R R Y I L L L P I Y Y Y T E Q ! ~ ~ k k +X+X+X+X+X+X+X+X+X+X+X+X+X+X+X+X+X+X+X+.{ | o.",
"-.*.-.+.{ ] { +X+X+X+X+X+X+X+X+X+X+XR T U U P G A C C S S G G G G G P T Q Q Q ~ ~ +X+X+X+X+X+X+X+X+X+X+X+X+X+X+X+X+X+X+X+.{ | o.",
"-.*.-.+.{ { ] OXOXOXOXOXOX+X+XoX+XY P P G A N m v v v ^ 7X7Xc 7X7X7XB B G L R Q Q ~ ~ +XOXOX+XOX+XOX+XOX+XOX+XOX+XOX+X+X+.| | o.",
"-.*.-.+.{ { { OXOXOXoXOXOXOXoXXXT L S M n b c c c c c c 7X7X7X7Xc c v n M N S L U E ! ~ k +XOXOXOXOXOXOXOXOXOXOXOXOXOX+X+.| { o.",
"-.*.-.+.{ { | oXOXoXOXoXOXoXOXXXL S B n b v v c c c c c 7Xc c c c c b m M N N C D L E ~ ! ~ +XoXOXoXOXoXOXoXOXoXOXoXOXOX+.| | o.",
"-.*.-.+.| ..{ oXoXoXoXoXoXXXXXK S M n b b b b v c c c c c c v v n n n b n m M N C D K T ~ ~ ~ k +XOXoXoXoXoXoXoXoXoXoXOX+...| o.",
"-.*.-.+.| o...XXoXXXoXXXXX.XL A N n n b b b b b v c c c c v b n n b b b b n m N C S G L T ~ ~ ~ k +XOXXXoXXXoXXXoXXXoXoX#.| ..o.",
"-.*.-.+.o.o.o.XXXXXXXXXX.X.XD B M n n n b b b b b c n c b b n M N N M m n b b b B C S G L U W ~ ~ z +XoXXXXXXXoXXXXXXXoX%.| ..o.",
"-.*.-.+...o....XXX.XXX.X.XL C m M n n v v v v v n c m c n M B A G G S N M b c c M C F K K L U E ! ~ k oXXXXXXXXXXX.XXXXX#.o.o.o.",
"-.*.-.%.%.%.%..X.X.X.X X XD M M m n n v v v v v m v B B C G P Y T R Y K L K H D M S G L L L K T W ! ~ OXXXXXXXXX.XXX.XXX-.%.%.%.",
"-.-.>.,.,.,.,. X.X X X XL M M m m n n n n N C n n v M A P T W Q Q T T L L I Y T I L K I Y I L U T Q ~ k OXXXXX.X.X.XXX.X,.,.,.>.",
"-.-.-.-.-.-.-..X X X X XD M m m m n m D H L G N v 7XN G R ! Q Q R P F D H I T R E W W R R T P U T W ~ ~ k oX.X.X.X.X.X.X>.-.-.-.",
"*.*.*.*.*.*.*. X X|. XL C M m n n S L Y T T P A 7X7XM G E Q W E U I Y T R Q Q W W E E W E R Y Y Y T ! ~ ~ +XXX X.X X.X X;.*.*.*.",
"_ _ _ _ _ _ _  X|.|.}.D B m n qXS L T E E E W G 7X7XM D E W E R R R U ! Q W ! ! Q Q W E W R T T Y R ! ~ ~ ~ XX.X X X X Xo._ _ _ ",
"{ { { ] { ] { |. X|.aXA M M n N C A I T Y T E G 7X7XM D W Q ! Q I qXH I Y T E W W Q Q W E W T T T E ! ~ ~ ~ oX.X X|. X|.o.{ { { ",
"{ { { { ] { ]  X|.}.H C M M n N C F L I R R W G 7X7XM G W ! T H C M M M M qXL U Y T R E E E T T R W ! ! ~ ~ +X.X|.|.|. X+.{ { { ",
"{ { { ] { ] { |.|.I D N M M N A I E E U T T Y A 7X7XN G U Y K B n n M qXA D G G G K L P I I U T R W ! ! ~ ~ ~ XX X|. X|.+.{ { { ",
"] { | { { { { |.}.U S N M M A T Y Q R D P D B M b n C F L H D A B n M v b b b b b b B A D L U T E W ! ~ ~ ~ ~ oX|.|.|.|.o.{ ] ] ",
"| ] | | { | { }.I U A N M A I E T H A N M M m n n n A K H B C H G N b v v b n n M B C qXS H I T E W ! ~ ~ ~ ~ +X|.|.|.|.+.] | | ",
"{ { ] { { { ] |.U U qXN B L Y L C B N N b b n m N G I T U I P U P C M M M M M B B B C A D K I T W W ! ~ ~ ~ ~ ~ .X|.|.|.+.] { { ",
"] { | { { { { }.T U C M M K G N B N n b b n m B U T E ! ! Q Q Q Q I M m M M B C qXA A D H L U R W W ! ~ ~ ~ ~ ~ XX}.|.}.o.{ ] ] ",
"| ] | | { | { }.R U C M B S C N n n n b m B H U E Q Q Q ! ~ ~ ! Q ! R M M B C qXA S F G L U T R W W ! ~ ~ ~ ~ ~ OX|.}.|.+.] | | ",
"| | | | | { | }.R U C m N M n n v v b M A L T ! ~ ~ ! ! ~ ~ ~ ~ ~ ~ ~ P C C qXA S D H K I T R E W Q ! ~ ~ ~ ~ ~ ~ }.|.}.+.| | | ",
"..| { | { ..| }.R U C m m m n v v v n C K R Q ! ~ ~ ~ ~ ~ ~ ~ ~ ~ ~ ~ ~ L C A A D H H P T R E W Q Q ! ~ ~ ~ ~ ~ ~  X}.}.+.| ....",
"| ....| ..| | {.R U C m n n b v v b N H T ! ! ! ~ ! ~ ~ ~ ~ ~ ~ ~ ~ ! ~ Q H D S F H L Y R E W Q Q Q Q ~ ~ ~ ~ ~ ~ .X}.}.#...| | ",
"..o...o...o...}.T U C m n n b v b n A U E H ~ ~ ! ~ ! ! ! ~ ~ ~ ~ ~ ~ ~ ~ Q K G K L I T R E W Q Q ! ! ! ! ~ ~ ~ ~ .X}.}.%.| ....",
"....o...o...o.{.U U A M n n b v b N G T W T ~ ! Q Q W Q ! ! ! ! ~ ~ ~ ! ~ ~ R L K L I T R E W Q Q ! ! ! ! ! W Q Q XX}.{.+.......",
"%.%.%.%.%.%.%.{.P U D N n m b b b N K E W W Q Q W Q ! ~ I ! ~ ~ ~ ~ ~ ! ! ~ ! I G H L U R E W Q Q ! ! ! Q W Q ! ! Q XX}.-.%.%.%.",
",.,.,.,.,.,.,.{.[.U H B n n b b n B Y ! T Q ! ! ! I E ~ ~ ! ~ ! ~ ~ ~ ! ! ! ! T G S H I T E W Q Q ! ! ! W Q ! ~ ~ ~ ! {.,.,.,.,.",
"-.-.-.-.-.-.-.{.{.U K B n n n n n A R ! Q ! W E Q ~ ~ ! ! ! ~ ~ ~ ~ ! Q ! ! ! R L S F P T E W Q Q ! ! ! ! ! ! Q ! ~ ! {.>.-.-.-.",
"*.*.*.*.*.*.*.[.{.U L C m n n n m S T ! U W E W W E W ~ Q W ! ~ ~ ~ ~ ! Q ! ! R P S D L T E W Q Q ! ! ! ! ! ! Q Q ~ ~ [.;.*.*.*.",
"-.*.-...| { ] {.[.P U C M m n n m A R ! K I C H Q ~ >.#.o.&.>.,.>.~ ~ ~ ! ! Q W P F S L T E W Q Q ! ! ! ! Q ~ Q Q ~ ~ {.o.{ | ..",
"-.*.-.+.] ] ] [.{.L U C M n n n m C K Q B A A P ~ ;.! ! ~ ~ ~ ~ ~ ~ ~ ~ ! ! Q R P F S L T E Q Q ! ! ! ! ! W ~ Q Q ~ ~ [.o.{ ] o.",
"-.*.-.+.] ] { [.[.[.U A N n n n n B L E M n C R ~ ~ ~ ~ ~ ~ ~ ~ ~ ~ ~ ~ ~ ! Q E I H D L T E Q Q ! ! ! ! ! E ! Q ! ~ ~ [.+.] { o.",
"-.*.-.+.{ { ] [.[.[.U A N n n n n B G L n v A ~ ~ ~ ~ ~ ~ ~ ~ ~ ~ ~ ~ ~ ~ Q W W I K H I R W Q Q ! ! ! ! ! E ~ ! ! ~ oX[.+.| { o.",
"-.*.-.+.{ ] { [.[.G A C N n n b b n A D n v S ~ ~ ~ ~ z z z z z z z ~ ~ Q R E R P H L Y R W Q Q ! ! ! ! ! W Q Q ! ~ XX[.+.{ | o.",
"-.*.-.+.{ { ] ].[.A P D N n n b b n M M v v G ~ ~ z z k z k oX XoXk z ~ E T R R H S G U R W Q ! ! ! ! ! Q W W Q ! ~  X[.+.| | o.",
"-.*.-.+.{ { { [.].D U K B n n b b n B m b v G ~ ~ z oXoX+Xk k +Xk z z ! U Y T I C C A P R W ! ! ! ! ! ! ! Q Q ! ~ oX[.[.+.| { o.",
"-.*.-.+.{ { | ].[.F T T C m n b b v C B n n G ~ z z +Xk z z -.#.Y R Y I I T I S M N A P R W ! ! ! ! ! ! ~ ! ! ~ ! |.[.].+.| | o.",
"-.*.-.+.| ..{ ].].G T T D B m n b n C B B b B R ~ T | { H G A n C S H U T T L B n M C P R W ! ! ! ! ! ! ~ ~ ! oX|.[.].[.+...| o.",
"-.*.-.+.| o...].].G I Y D N n n n v B qXC m v C H G B N v M m M C F P T Q R L C n M C P R W Q ! ! ! ! ! ~ ! ! |.[.].].].#.| ..o.",
"-.*.-.+.o.o.o.].].G D H F N m n n n n B C n b v n n v v v n M qXA L T E W R I D M N S U E W Q Q Q ! ! ! ~ ! {.[.].].].].%.| ..o.",
"-.*.-.+...o...'.].G D D S B m n n v v m B m v v v b v v n n n m C F P T R T I D M B G T W Q Q Q ! ! ! ! ! ! ].'.].'.].'.#.o.o.o.",
"-.*.-.%.%.%.%.].'.'.G A A C B n n n v n n B c c v v v v v v b b m C D L Y I H C m C L E Q Q Q Q ! ! ! ! ! XX].].].].'.].-.%.%.%.",
"-.*.-.>.,.,.,.'.].'.H G G A B n n n v v b b c c c v v v v c c b b N A F H F C B N F Y W Q Q Q ! ! ! ! ! ! .X].'.].'.].'.,.,.,.>.",
"-.-.-.-.-.-.-.'.'.'.'.K K G S M n n b v b v c n b v v c c c c b m M C S S A C C D P R Q Q Q Q Q Q ! ! ! OX|.'.'.'.'.'.'.>.-.-.-.",
"*.*.*.*.*.*.*.'.'.'.'.L L Y G C m M n n b c c c n b c c c c c b m N A S S S S K Y E ! ! Q Q Q ! ! ! ! ~ XX[.'.'.'.'.'.'.;.*.*.*.",
"_ _ _ _ _ _ _ '.'.'.`.P Y E D A N n M m n v c c c n n b c c v m m N A D G H L T E Q ! ~ ! Q ! ! ! ! ! k .X'.'.'.'.'.'.'.o._ _ _ ",
"{ { { ] { ] { `.'.`.'.`.'._.H D C M n M m n v c c c n b b b m n M C S G L Y R W Q ~ ~ ! Q Q ! ! ! ! Q +X|.`.'.`.'.`.'.`.o.{ { { ",
"{ { { { ] { ] `.`.'.`.'.`.'._.H D C m n N M m n v v b b n n M B C D K U R W ! ~ ~ ~ ~ ! Q Q ! ! ! ! Q OX|.'.`.'.`.'.`.'.+.{ { { ",
"{ { { ] { ] { `.'.`.'.`.'.`.'.K H D C n n B M m n n m N B C S G K I T E Q ~ ~ ~ ~ ~ ! Q Q ! ! ! ! Q Q OX|.`.'.`.'.`.'.`.+.{ { { ",
"{ { ] { { { ] `.`.`.`.`.`.`.`._.K H D C n n B B N B A D G H P Y R E Q ~ ~ ~ ~ ~ ! ! Q Q ! ! ! ! Q Q Q R |.`.`.`.`.`.`.`.+.] { { ",
"] { | { { { { `.`._.`.`.`._.`.`.K G H D C B B C D K I T R R E W ! ~ ~ ~ ~ ! ! Q Q Q Q ! ! ! ! Q Q Q Q T F (.`.`.'.`.`.`.o.{ ] ] ",
"| ] | | { | { `.`.`.`.`.`.`.`.`.`.K G H S A qXA D L Y W Q ! ! ~ ~ ~ ! Q Q Q Q Q Q ! ! ! ! ! Q Q Q Q Q ! ~.~.`.`.`.`.`.`.+.] | | ",
"| | | | | { | _.`._.`._.`._.`._.`.K H G H G D F F H Y E E W W W W W Q Q Q Q Q ! ! ! ! ! ! Q Q Q Q Q ~ c > ~.`._.`._.`.`.+.| | | ",
"..| { | { ..| `._._._.`._._._.`._._.K H G H H H G L L R W Q Q W W Q Q Q ! ! ! ! ! ! ! ! Q Q Q Q Q P c c n ~._.`._.`._.`.+.| ....",
"| ....| ..| | _.`._._._.`._._._.`._.L L H G G H H L P R Q W Q ! ! ! ! ! ! ! ! ! ! ! Q Q Q ! Q H M b v n c F `._.`._.`.`.#...| | ",
"..o...o...o...o.+.%.#.%.+.#.%.>.;.>.&.%.%.%.#.%.#.%.+.%.+.#.%.+.#.%.#.%.#.%.#.%.+.%.#.%.+.#.%.>.;.>.&.%.%.%.#.%.#.%.+.#.%.| ....",
"....o...o...o...o...o...o.o.o.-.*.-.+...o...o.......o...o.o.| ......o...o...o...o...o...o.o.o.-.*.-.+...o...o.......o.o.| ......",
"%.%.%.%.%.%.%.%.%.%.%.%.%.%.%.-.*.-.%.%.%.%.%.%.%.%.%.%.%.%.%.%.%.%.%.%.%.%.%.%.%.%.%.%.%.%.%.-.*.-.%.%.%.%.%.%.%.%.%.%.%.%.%.%."
};
