/* XPM */
static char *_9da75e060e44fc1d898fb6921a8a33eDdx0pAKFUJnpgmqC[] = {
/* columns rows colors chars-per-pixel */
"64 64 256 2 ",
"   c black",
".  c #1F170B",
"X  c #170F07",
"o  c #4B4B4B",
"O  c white",
"+  c #1B1B1B",
"@  c #131313",
"#  c #0B0B0B",
"$  c #070707",
"%  c #2F371F",
"&  c #232B0F",
"*  c #171F07",
"=  c #0F1700",
"-  c #4F3B2B",
";  c #473323",
":  c #3F2B1B",
">  c #FFB7B7",
",  c #F7ABAB",
"<  c #F3A3A3",
"1  c #EB9797",
"2  c #E78F8F",
"3  c #DF8787",
"4  c #DB7B7B",
"5  c #D37373",
"6  c #CB6B6B",
"7  c #C76363",
"8  c #BF5B5B",
"9  c #BB5757",
"0  c #B34F4F",
"q  c #AF4747",
"w  c #A73F3F",
"e  c #A33B3B",
"r  c #9B3333",
"t  c #972F2F",
"y  c #8F2B2B",
"u  c #8B2323",
"i  c #831F1F",
"p  c #7F1B1B",
"a  c #771717",
"s  c #731313",
"d  c #6B0F0F",
"f  c #670B0B",
"g  c #5F0707",
"h  c #5B0707",
"j  c #530707",
"k  c #4F0000",
"l  c #470000",
"z  c #430000",
"x  c #FFEBDF",
"c  c #FFE3D3",
"v  c #FFDBC7",
"b  c #FFD3BB",
"n  c #FFCFB3",
"m  c #FFC7A7",
"M  c #FFBF9B",
"N  c #FFBB93",
"B  c #FFB383",
"V  c #F7AB7B",
"C  c #EFA373",
"Z  c #E79B6B",
"A  c #DF9363",
"S  c #D78B5B",
"D  c #CF8353",
"F  c #CB7F4F",
"G  c #BF7B4B",
"H  c #B37347",
"J  c #AB6F43",
"K  c #A36B3F",
"L  c #9B633B",
"P  c #8F5F37",
"I  c #875733",
"U  c #7F532F",
"Y  c #774F2B",
"T  c #6B4727",
"R  c #5F4323",
"E  c #533F1F",
"W  c #4B371B",
"Q  c #3F2F17",
"!  c #332B13",
"~  c #2B230F",
"^  c #EFEFEF",
"/  c #E7E7E7",
"(  c #DFDFDF",
")  c gray86",
"_  c LightGray",
"`  c #CBCBCB",
"'  c gray78",
"]  c gray75",
"[  c #B7B7B7",
"{  c gray70",
"}  c gray67",
"|  c #A7A7A7",
" . c #9F9F9F",
".. c #979797",
"X. c #939393",
"o. c #8B8B8B",
"O. c #838383",
"+. c gray50",
"@. c #777777",
"#. c #6F6F6F",
"$. c gray42",
"%. c gray39",
"&. c #5B5B5B",
"*. c gray34",
"=. c gray31",
"-. c gray28",
";. c #434343",
":. c gray23",
">. c #373737",
",. c #2F2F2F",
"<. c #272727",
"1. c #232323",
"2. c #77FF6F",
"3. c #6FEF67",
"4. c #67DF5F",
"5. c #5FCF57",
"6. c #5BBF4F",
"7. c #53AF47",
"8. c #4B9F3F",
"9. c #439337",
"0. c #3F832F",
"q. c #37732B",
"w. c #2F6323",
"e. c #27531B",
"r. c #1F4317",
"t. c #17330F",
"y. c #13230B",
"u. c #0B1707",
"i. c #BFA78F",
"p. c #B79F87",
"a. c #AF977F",
"s. c #A78F77",
"d. c #9F876F",
"f. c #9B7F6B",
"g. c #937B63",
"h. c #8B735B",
"j. c #836B57",
"k. c #7B634F",
"l. c #775F4B",
"z. c #6F5743",
"x. c #67533F",
"c. c #5F4B37",
"v. c #574333",
"b. c #533F2F",
"n. c #9F8363",
"m. c #8F7753",
"M. c #836B4B",
"N. c #775F3F",
"B. c #675333",
"V. c #5B472B",
"C. c #4F3B23",
"Z. c #43331B",
"A. c #7B7F63",
"S. c #6F7357",
"D. c #676B4F",
"F. c #5B6347",
"G. c #53573B",
"H. c #474F33",
"J. c #3F472B",
"K. c #373F27",
"L. c #FFFF73",
"P. c #EBDB57",
"I. c #D7BB43",
"U. c #C39B2F",
"Y. c #AF7B1F",
"T. c #9B5B13",
"R. c #874307",
"E. c #732B00",
"W. c white",
"Q. c #FFDBDB",
"!. c #FFBBBB",
"~. c #FF9B9B",
"^. c #FF7B7B",
"/. c #FF5F5F",
"(. c #FF3F3F",
"). c #FF1F1F",
"_. c red",
"`. c #EF0000",
"'. c #E30000",
"]. c #D70000",
"[. c #CB0000",
"{. c #BF0000",
"}. c #B30000",
"|. c #A70000",
" X c #9B0000",
".X c #8B0000",
"XX c #7F0000",
"oX c #730000",
"OX c #670000",
"+X c #5B0000",
"@X c #4F0000",
"#X c #430000",
"$X c #E7E7FF",
"%X c #C7C7FF",
"&X c #ABABFF",
"*X c #8F8FFF",
"=X c #7373FF",
"-X c #5353FF",
";X c #3737FF",
":X c #1B1BFF",
">X c blue",
",X c #0000E3",
"<X c #0000CB",
"1X c #0000B3",
"2X c #00009B",
"3X c #000083",
"4X c #00006B",
"5X c #000053",
"6X c white",
"7X c #FFEBDB",
"8X c #FFD7BB",
"9X c #FFC79B",
"0X c #FFB37B",
"qX c #FFA35B",
"wX c #FF8F3B",
"eX c #FF7F1B",
"rX c #F37317",
"tX c #EB6F0F",
"yX c #DF670F",
"uX c #D75F0B",
"iX c #CB5707",
"pX c #C34F00",
"aX c #B74700",
"sX c #AF4300",
"dX c white",
"fX c #FFFFD7",
"gX c #FFFFB3",
"hX c #FFFF8F",
"jX c #FFFF6B",
"kX c #FFFF47",
"lX c #FFFF23",
"zX c yellow",
"xX c #A73F00",
"cX c #9F3700",
"vX c #932F00",
"bX c #872300",
"nX c #4F3B27",
"mX c #432F1B",
"MX c #372313",
"NX c #2F1B0B",
"BX c #000053",
"VX c #000047",
"CX c #00003B",
"ZX c #00002F",
"AX c #000023",
"SX c #000017",
"DX c #00000B",
"FX c cyan",
"GX c #FF9F43",
"HX c #FFE74B",
"JX c #FF7BFF",
"KX c magenta",
"LX c #CF00CF",
"PX c #9F009B",
"IX c #6F006B",
"UX c #A76B6B",
/* pixels */
">.>.>.>.>.>.>.>.>.>.>.>.>.>.>.>.>.>.>.>.>.>.>.>.>.>.>.>.>.>.>.>.>.>.>.>.>.>.>.>.>.>.>.>.>.>.>.>.>.>.>.>.>.>.>.>.>.>.>.>.>.>.>.>.",
"*.>.*.-.-.-.-.-.*.-.-.-.-.-.-.*.-.>.-.-.-.-.-.-.-.*.*.*.*.*.*.-.-.-.-.-.-.-.-.-.*.*.*.*.*.*.*.-.-.-.-.>.>.>.-.-.*.*.-.-.-.-.-.>.",
">.`.`.].].].].].].].].].|.-.-.*.`.`.].].].].].].].].].].].].].].].].].].|.-.>.*.`.`.`.`.'.'.'.'.'.'.].].].].].[.[.[.[.{.{.{.|.-.",
"-.`.[.}.}.]..X|.]..X[.|.OX,.-.*.`.{..X{..X{..X{.XX{. X{. X{.XX{.XX{.[.|.oX,.-.>.].|.[.}.[.}.}.[.oX[.XX[.}.[..X}.|.XX[. X[.|.XX,.",
"-.].|.XX|..X|. XoX|..XoXOX,.-.*.].{..X.X|..XoX|.|.oX X|.|.oX X|.oX|. XoX+X,.-.*.].|.|.XXOX|..XoX.X|.XX.X|.|..X|.XX.X|.+X|.oXOX,.",
"-.].XX|.|.oX X|.|.oX|.+Xz ,.-.*.]..X{.|..X|.oX|..X|.oX|.oX.XXX|.oX XXXoX+X,.-.-.].oX|.OX.X|.OX|.oX|.XX|..X|.OX|. XXX|.XX|.oXk ,.",
"-.[.|.XX.X XXX|.oX.X|.oXz ,.-.*.{.{..X|..X.X X|.oXR.Y.U.U.U.U.U.Y.U.U.U.U.U.U.R.{.oX|.XX|..XOX|.oXoX|.|.oX|..X|.|.XX|.+X|..Xk ,.",
"-.{.XX|.|.oX|. XoX XoX+Xz ,.-.-.{.[..X|.oX|.oXY.Y.R.T.U.U.U.U.Y.zXzXzXzXzXzXzXU.Y.Y.|.OX.X|.XX.XoX.XXX|..X|.OX|.XX.X|.XX|.oXz ,.",
"-.{.|.oX.X+XoXXX+XoX.XoXz ,.>.*. X XoXoXk R.R.Y.Y.R.R.R.U.U.T.U.U.U.U.U.U.R.E R.Y.Y.R.R.oXoXk .Xk oX+X.Xk oXk .XOXk oX.XoX.Xz ,.",
"-.XXOXOXOXz z z z z z z z ,.>.-.XXOXOXR.Y.Y.R.E E T.zXT.R.U.T.U.U.U.U.zXzXU.zXT.E E R.Y.Y.R.OXOXOXOXOX+X+X+X+X+X+X+X+X+Xz z z ,.",
"-.-.,.,.,.,.,.,.,.,.1.1.1.,.>.*.-.,.E T.Y.Y.zXzXzXzXzXU.T.R.Y.Y.Y.Y.Y.zXY.U.U.Y.zXzXR.Y.Y.T.E ,.,.,.,.,.1.1.1.1.1.,.,.,.,.,.,.,.",
"*.>.>.>.>.-.-.-.-.>.>.>.>.>.-.>.-.E E E E R.zXzXzXzXT.T.Y.R.T.T.T.T.T.E Y.T.T.zXzXU.zXR.E E E E &.*.*.-.-.;.>.;.*.>.*.-.-.-.*.>.",
"`.].].].{.{.{.{.{.{.{.{.{.{.{.|.E Y.Y.R.zXzXzXU.T.T.R.U.Q R.R.R.R.R.R.E U.U.R.T.T.U.Y.zXzXR.Y.Y.E k oX{.|.-.;.*.`.`.].].].].].].",
"}..X.X}. XXX}.XX X.X}.OX}..X|.Y.Y.E Y.E zXzXzXT.Y.Y.U.R.Q E E E E E E Y.E R.U.Y.Y.T.zXzXzXE Y.E Y.Y.k k oX>.-.>.`.[.XX}..X}..X}.",
".X|..X|.XX.X.XOX|..XOX.X|.|.E Y.Y.E E E U.T.T.R.R.U.U.E Q Q Q Q Q Q Q Y.Y.E U.U.R.R.T.T.U.E E E Y.Y.E k z >.-.*.[.}.XX|..XXX|. X",
"oX|.|..X XOX|.XX.X.X XOX|.E E E E T.U.T.E T.Y.T.E E E E Q Q Q Q Q Q Q T.T.E E E E T.Y.T.E T.U.T.E E E E z 1.;.-.[.XX|.|.|.XX|.XX",
"|..X.X|..XXXXX.XXX|. XOXY.Y.E E T.U.zXzXE R.U.U.E Y.R.Q Q 1.1.1.R.,.,.Q Q Q Y.Y.E U.U.R.E zXT.U.T.E E Y.Y.1.1.-.[.}.XX|.XX|. XXX",
"oX|.OX|.oX.XXX XOX|.OX.XY.Y.E zXzXzXT.Q R.E E E E R.1.1.1.1.1.R.T.U.,.,.,.,.T.E E E E E R.Q zXT.zXzXE Y.Y.1.1.-.}.XX|.|.+X|.XX.X",
"oX}.OXoXk XXoX XoX XoXQ Q Q T.U.zXT.zXY.R.Y.Y.R.E 1.1.1.1.1.R.T.T.T.zX,.,.,.,.,.E R.Y.Y.R.Y.zXzXT.zXT.Q Q Q   1.}.|.XXoX+XoX XoX",
"z k k k k k k k k k k E Q zXU.zXT.Y.T.Q E E Y.R.1.1.1.1.1.R.T.T.T.T.U.Y.,.>.,.,.,.Y.Y.E E Q T.Y.zXT.zXzXQ E   1.|.OXz OXz z OXz ",
",.,.,.1.,.,.,.1.1.1.Y.Y.T.U.Y.zXT.U.zXR.Y.E E 1.1.1.1.1.R.T.T.T.T.T.E ,.,.>.>.,.,.,.E E Y.R.zXzXU.T.Y.U.T.Y.Y.  1.1.1.1.,.,.,.,.",
"*.*.-.>.>.-.*.>.*.>.Y.Y.T.R.zXzXT.Y.U.E R.Y.1.1.1.1.1.R.T.T.T.T.T.E ,.,.*.*.*.>.,.,.,.Y.R.E U.Y.Y.U.T.R.T.Y.Y.  1.1.>.;.*.-.-.-.",
"*.`.`.].].].].].].].R.E zXzXzXT.U.R.E Y.E 1.1.1.1.1.R.T.T.T.T.T.E ,.,.*.*.zXzX*.>.,.,.,.E Y.E R.zXzXT.zXzXE R.k +XoX{.{.{.{.|.-.",
"*.`..X}.{.XX{.XX{.T.R.E zXU.zXT.U.zXE Y.R.1.1.1.1.R.T.T.T.T.T.E ,.,.>.*.zXU.U.zX*.>.,.,.Y.Y.E zXzXU.zXY.zXE R.T.k k OX|.+X|.z ,.",
">.`.}..X|. X|.XXoXY.R.E U.U.zXT.U.U.E E 1.1.1.1.R.T.T.T.T.T.E ,.,.>.*.zXU.T.T.U.zX>.>.,.,.E E U.U.U.zXT.U.E R.Y.k z k oXXXoXz ,.",
"-.{.OX|.|.oX.X+X|.Y.Y.E E R.R.U.U.Q R.R.1.1.1.1.E R.T.T.T.T.T.U.E >.zXU.T.T.T.T.U.zX>.,.,.R.R.Q U.U.R.R.E E Y.Y.z z k k +XoXz ,.",
"-.{.}..X|.k |.+XoXY.T.E Q R.R.R.Q Y.Y.E 1.1.1.,.>.E R.T.T.T.T.U.zXzXU.T.T.T.T.T.T.U.zX>.,.E Y.Y.Q R.R.R.Q E T.Y.k k z k oXoXz ,.",
"*.{.oXOX|.k .XXX|.Y.E E E zXzXQ Y.Y.Y.1.1.R.Y.,.>.>.E R.T.T.T.T.U.U.T.T.T.E T.T.T.T.U.zX,.,.Y.Y.Y.Q zXzXE E E Y.z z k k oXoXz ,.",
"-.[.|.OXoXoXoX+XoXT.E E R.zXY.E E E E 1.R.T.T.zX>.>.>.E R.T.T.T.T.T.T.T.E ,.E T.T.T.T.U.zX,.E E E E U.U.R.E E T.k z k k oXoXz ,.",
"-.|. XOXOXOXOXOXOXE R.U.U.zXT.zXzXR.R.R.Y.T.T.U.zX>.>.>.E R.T.T.T.T.T.E ,.,.,.E T.T.T.T.T.E R.R.zXzXU.Y.zXzXR.E z z z k oX+Xz ,.",
"-.-.>.,.,.,.,.,.,.E R.U.zXzXT.U.Y.E Y.,.E T.T.T.U.zX>.>.>.Y.T.T.T.T.T.T.zX,.>.,.E T.T.T.E ,.Y.E Y.U.U.Y.Y.U.R.E       1.1.1.,.,.",
"*.*.*.*.*.-.-.>.-.E Q R.zXzXT.T.E E Y.,.,.E T.T.T.U.zX>.zXT.T.T.T.T.T.T.Y.zX>.>.,.E T.E ,.,.Y.E E Y.zXT.Y.R.Q E 1.1.1.1.-.-.*.>.",
"{.{.{.{.{.{.{.{.{.Y.E Q R.Y.T.zXzXR.R.E ,.,.E T.T.T.U.zXU.T.T.T.E T.T.T.T.Y.zX>.>.,.E >.>.R.R.R.zXzXzXT.R.Q E Y.k +XOXoX{.{.{.{.",
"|.}.|.}. X[.}.}.[.Y.Y.R.U.U.zXT.U.E Y.R.,.,.,.E T.T.T.U.T.T.T.E ,.E T.T.T.T.Y.zX>.>.>.>.-.Y.Y.E U.U.zXT.zXR.Y.Y.k k z k oX|.oX|.",
"|.XX.X|. X|.XX|..XE E R.U.zXU.T.T.E E E ,.,.,.,.E T.T.T.T.T.E ,.,.,.Y.T.T.T.T.Y.Y.>.-.-.*.E E E T.U.U.T.U.R.E E z k k k oX X.XoX",
".XXX|. XXX|.XX X|.oXE Q R.zXzXT.zXT.E T.E ,.,.,.,.E T.T.T.E ,.,.,.zXT.T.T.T.T.E ,.,.>.*.R.T.T.T.zXzXT.Y.R.Q E z k z k k oXXX|.oX",
"|..XXX|. X|. XXX.XoXR.E Q R.Y.zXT.U.zXE T.,.,.,.,.,.E T.E ,.,.,.zXY.T.T.T.T.E ,.,.>.>.-.T.E zXU.U.zXT.R.Q E R.z k z z k oXXXoX.X",
"|..XXX|.XX|.XX X|.oXU.T.E U.zXzXT.zXY.E Y.R.,.>.,.,.,.E ,.,.,.zXY.T.T.T.T.E ,.,.>.-.*.R.Y.E Y.zXU.T.zXzXE T.U.z z z k k oX.X|.oX",
"oXoX.X XoXoX XoXoXoXT.R.E U.U.zXT.T.Q Q E R.R.>.>.,.,.,.,.,.zXY.T.T.T.T.E ,.,.>.-.*.R.Y.Y.Q Q T.T.T.U.U.E R.T.z k z k oXXX|.|.oX",
"z z k k k k k k k z z E Q R.zXY.R.R.E R.R.E Y.Y.-.>.,.,.,.Y.Y.T.T.T.T.E ,.,.>.-.*.R.Y.E E R.E R.R.Y.zXR.Q E z z z z k +X+X+X+Xz ",
",.,.,.,.,.,.,.,.,.,.,.E E Q R.R.Q zXY.R.zXzXE E R.-.-.-.>.,.E T.T.T.E ,.,.>.-.-.R.E E U.U.R.Y.zXQ R.R.Q E E       1.1.1.1.,.,.,.",
"*.-.*.>.-.>.>.-.-.>.>.>.E R.E E E R.zXzXzXU.R.R.E U.*.*.-.,.,.E T.E ,.,.>.>.R.Y.E R.R.U.zXU.zXR.E E E R.E     1.1.1.1.>.*.>.*.>.",
">.`.].].].].].].].{.{.oXk Y.Y.T.E T.R.zXzXT.U.zXE Y.R.U.Y.,.,.,.E ,.,.T.U.U.U.Y.E Y.U.T.U.T.R.T.E T.Y.Y.k k +X+XoXoX{.{.{.{.|.-.",
"*.].|..X.X|.OX|.|.XX XoXk R.Y.T.E R.Y.T.zXzXzXzXU.T.T.R.U.U.U.U.T.U.U.U.U.U.T.E U.U.zXU.T.T.Y.R.E T.Y.R.z k k k k XX XoX.X|.z ,.",
"-.].|.OX|..XOX|..X XXX|.OXk R.E E R.U.Y.R.zXzXzXY.U.zXR.Y.U.U.T.zXzXzXzXzXT.Y.U.R.U.U.T.R.Y.U.R.E E R.k z k k k k oX X|.OX.Xz ,.",
"-.]..XOX|.OX.XoXOX|.OX|.oXk k E R.E E R.Y.T.T.zXzXzXzXT.R.U.T.U.U.U.U.U.U.T.U.zXU.T.T.U.Y.R.E E R.E k z k z z k XX|.oX.XOX|.z ,.",
">.].|..X|..XOX|..XXX X|.XX+Xk k R.U.T.Q U.T.R.T.T.zXzXY.R.U.T.U.U.U.U.U.U.T.U.U.T.U.R.Y.U.Q T.U.R.k k z z k z k +XXXoX|..X|.z ,.",
"*.].|.OX.X|.OX|.OX|.OX|.OXoXk k k R.E E Q Q Q Y.U.T.T.T.R.T.Y.Y.Y.Y.Y.Y.Y.R.T.T.U.Y.Q Q Q E E R.k k z z k z k XX+XXX X.XOXoXz ,.",
">.[.|.OX|.OX.XoX.X XXX|..X.XoXk k k k E Y.T.Q U.U.Y.E T.R.T.Y.Y.Y.Y.Y.Y.Y.E E Y.U.U.Q T.Y.E k z z z k z k k oX+XXX XoX|.OX|.z ,.",
"*.|.OXOXOXOXOXOXOXOXOXk k k k k k k k k R.Y.E Q E E E E E T.T.T.T.T.T.T.T.E R.E E Q E Y.R.z z z z z z z z z k k k k k k k z z ,.",
">.-.,.,.,.,.,.,.,.,.,.,.>.>.>.,.1.          E R.R.R.T.E E R.R.R.R.R.R.R.R.E T.R.R.R.E             1.1.,.1.,.,.1.1.1.,.,.,.,.,.,.",
"*.>.*.>.*.-.*.-.-.-.-.*.%.%.*.-.>.>.,.1.1.      T.T.T.E E E E E E E E E E E T.T.T.          1.1.,.1.,.,.,.>.>.,.1.1.,.>.-.-.*.-.",
"].].].].].{.{.{.{.{.{.{.{.{.{.{.{.|.-.>.,.OX+X+Xk z z z Q Q Q Q Q Q Q Q Q z z z z z k k k k z 1.1.,.`.].].].].].{.{.{.{.{.{.{.{.",
"XX|.+X|.|.OX XOX|.XX[.XX|.OX|.XX|.z ,.-.>.].k k k k k k z z z z z z z z z z z z z z z z z z z 1.,.,.].|.OX.X|.+X|.oX|.oX|.OX|.oX",
"|.XXXX|.XX|.OX XXXOX|.+XXXOX.XOX.Xz ,.-.-.].XXoXk k k k k z k z k z z z k z k z z z k z z k z 1.,.,.].OX|.+X|.oX|.oX.X|.oX|..Xk ",
"|.XX+XXX|.OX XOXXX|.XX+X|..XOX XXXz ,.-.;.].XXXXoXoXOXk k z k z z k z z k z z z k z z z k k z 1.,.>.].OX|.oXoX|.|..XoX.XoXOXoX.X",
"XX X+X XOXOX|.OX|.XX|.+XXXoXOX|.OXz ,.-.;.].|.k oX|.OXoXk oXk z k k k z k z k k z k k k k k z ,.>.-.].|.OX+X|..XoXoX|.oX|.OXoX|.",
"OX|.XX|.OX|.OX.X|.OX|.XX+X.X|.XX.Xz ,.-.;.].k |.|.OX|.XXoX.X+XXXk oXk oXOXk +XOXk oX+XXXoXOXz ,.-.-.].OX|..X|.oX|..XoXoX+X|.oX|.",
"OX|.XXXXOX X XOX XOXXX+X|.OX|.OX Xz ,.-.-.].k |.oX|.OXXXXX.Xk  XOXk k OXXX+X+X.Xk |.+X|.+X.Xz ,.>.-.].OX|.+XoX+X|.oX|.oX+XOX|.k ",
"XX X+X|.OXOX.XOXXXXX|.+X|.OXoX.XXXz ,.-.*.[.|.k oX|.OX|.k .XOX|.k XXoXOX|.OXXX|.OX.XoX.XOX.Xz ,.>.-.[.OXOX+X|.+X|.oX|.oX|.OX|.oX",
"k k k k k k k k k k k k k k k k z z ,.-.-.|.z z z z z k k k k k k k k k k k k k k k k k k z z 1.-.*.|.z z k k k k k k k k k k k ",
",.,.,.,.,.,.,.,.,.,.,.,.,.,.,.,.,.,.,.-.*.-.>.,.,.,.,.,.,.,.,.,.,.,.,.,.,.,.,.1.1.1.1.1.,.1.1.1.>.-.-.,.,.,.,.,.,.1.1.1.1.1.,.,.",
">.*.>.*.>.>.>.-.-.-.-.-.*.*.>.-.-.-.-.*.*.*.*.*.-.-.-.*.-.-.-.*.-.-.>.-.-.-.;.>.>.;.>.>.;.-.;.>.;.*.-.-.>.*.-.-.-.-.;.>.;.-.-.-.",
"*.*.*.*.*.*.*.*.*.*.*.*.*.*.*.*.*.*.*.*.*.*.*.*.*.*.*.*.*.*.*.*.*.*.*.*.*.*.*.*.*.*.*.*.*.*.*.*.*.*.*.*.*.*.*.*.*.*.*.*.*.*.*.*."
};
