/* XPM */
static char *e431672c6ed94c5c8fe78fc1ee882535pqgeNQeW05uHVcwZ[] = {
/* columns rows colors chars-per-pixel */
"64 51 254 2 ",
"   c #170913",
".  c #1D131A",
"X  c #310E0C",
"o  c #1D1424",
"O  c #241E2D",
"+  c #470505",
"@  c #550007",
"#  c #5D0019",
"$  c #6E0A1C",
"%  c #650A26",
"&  c #6C122B",
"*  c #761537",
"=  c #4C2E36",
"-  c #6D2237",
";  c #704C3C",
":  c #3F3D42",
">  c #792B46",
",  c #6B364C",
"<  c #7C334C",
"1  c #7A3854",
"2  c #6F2D45",
"3  c #5B3947",
"4  c #3D5F4E",
"5  c #584F53",
"6  c #794957",
"7  c #6D5250",
"8  c #4E6355",
"9  c #755664",
"0  c #764F61",
"q  c #797A70",
"w  c #616E5C",
"e  c #8C1A3A",
"r  c #951C2E",
"t  c #A51A37",
"y  c #95233C",
"u  c #8D3333",
"i  c #A8243A",
"p  c #B8243C",
"a  c #A63B37",
"s  c #B23E3D",
"d  c #A7262B",
"f  c #830F1A",
"g  c #CC2F3C",
"h  c #9B4832",
"j  c #B04736",
"k  c #981F45",
"l  c #A51F45",
"z  c #822D4B",
"x  c #8C2D4C",
"c  c #8B2749",
"v  c #9D254C",
"b  c #942B4B",
"n  c #9C2B4B",
"m  c #962745",
"M  c #8B354A",
"N  c #973749",
"B  c #8C2C52",
"V  c #872A53",
"C  c #942D54",
"Z  c #9B2B54",
"A  c #942B59",
"S  c #8C3354",
"D  c #853656",
"F  c #943355",
"G  c #9A3357",
"H  c #A32B43",
"J  c #A4244C",
"K  c #A32B4C",
"L  c #AB2C4C",
"P  c #A82646",
"I  c #BB2D4B",
"U  c #B52A4A",
"Y  c #AA374B",
"T  c #BE354B",
"R  c #B43A4C",
"E  c #BB3C4C",
"W  c #B63647",
"Q  c #A72B53",
"!  c #B42E53",
"~  c #BD2951",
"^  c #A83856",
"/  c #BB3454",
"(  c #B53C53",
")  c #BC3C54",
"_  c #BF375C",
"`  c #B73957",
"'  c #BB3F63",
"]  c #8D3660",
"[  c #CB2E44",
"{  c #CC2D4B",
"}  c #C62D4A",
"|  c #D32D44",
" . c #D42E4A",
".. c #DA2D4A",
"X. c #DD2D44",
"o. c #C43244",
"O. c #CC3245",
"+. c #C4334B",
"@. c #CC344B",
"#. c #C43A4C",
"$. c #CC394D",
"%. c #C23A43",
"&. c #D33345",
"*. c #D3334B",
"=. c #DB324C",
"-. c #D3394D",
";. c #DA3B4C",
":. c #D33646",
">. c #C62B57",
",. c #C33454",
"<. c #CC3553",
"1. c #C43A53",
"2. c #CB3A54",
"3. c #CB355A",
"4. c #C43B5A",
"5. c #CB3B5A",
"6. c #C6375D",
"7. c #D23452",
"8. c #DB3452",
"9. c #D33953",
"0. c #D63956",
"q. c #D32D55",
"w. c #E1324E",
"e. c #C53960",
"r. c #98474D",
"t. c #864458",
"y. c #9B4655",
"u. c #8A5855",
"i. c #975A53",
"p. c #A7454A",
"a. c #B84446",
"s. c #A74556",
"d. c #B54152",
"f. c #B84759",
"g. c #A6525D",
"h. c #AD5144",
"j. c #854960",
"k. c #865768",
"l. c #975968",
"z. c #965672",
"x. c #AB5663",
"c. c #AC4C6D",
"v. c #897477",
"b. c #B17271",
"n. c #876156",
"m. c #C64459",
"M. c #CB454C",
"N. c #C56350",
"B. c #D07271",
"V. c #7B8D6F",
"C. c #B19670",
"Z. c #BCAB72",
"A. c #9E947B",
"S. c #C9A776",
"D. c #D0A465",
"F. c #E5BB7D",
"G. c #AF7085",
"H. c #9E7387",
"J. c #C8718D",
"K. c #759F94",
"L. c #968489",
"P. c #939291",
"I. c #B38697",
"U. c #B19392",
"Y. c #91AD9A",
"T. c #A69DA0",
"R. c #B5A6A7",
"E. c #B8B6BB",
"W. c #B5B0AF",
"Q. c #91B7A2",
"!. c #F49192",
"~. c #CAAF94",
"^. c #F8AB89",
"/. c #EAB985",
"(. c #FAA796",
"). c #F2B289",
"_. c #D59AB1",
"`. c #E99CAF",
"'. c #C6AFBC",
"]. c #C6B3BB",
"[. c #CFAFB0",
"{. c #E8A7B5",
"}. c #F9A7B8",
"|. c #E6B5BB",
" X c #F3B3B6",
".X c #F9ABAA",
"XX c #CB9096",
"oX c #DEC38C",
"OX c #E8D79D",
"+X c #F6D79B",
"@X c #EDC991",
"#X c #FFCDA8",
"$X c #ECDCA2",
"%X c #E7D2AA",
"&X c #F4DCA3",
"*X c #FFD4AB",
"=X c #F9D8A7",
"-X c #FFCAB5",
";X c #FED6B6",
":X c #E7D2AF",
">X c #EBE1A6",
",X c #F7E2A7",
"<X c #EEE7B0",
"1X c #C7BAC4",
"2X c #D5B8C6",
"3X c #E7B9C4",
"4X c #F8BAC7",
"5X c #EAB6CD",
"6X c #C6C3C9",
"7X c #D3C6CC",
"8X c #D7CAD5",
"9X c #D8D7DA",
"0X c #CBD7C9",
"qX c #E9C2CB",
"wX c #F3C5C9",
"eX c #E9CAD8",
"rX c #FEDCDE",
"tX c #FED4D7",
"yX c #F0D5D3",
"uX c #D3E8DC",
"iX c #FBE3DC",
"pX c #EEE6CC",
"aX c #DDDCE3",
"sX c #E7D9E2",
"dX c #FFDCE2",
"fX c #FADAE8",
"gX c #FFDDF0",
"hX c #FFD4F7",
"jX c #EAE6E9",
"kX c #FFE2E4",
"lX c #F4E3EA",
"zX c #FEE3EC",
"xX c #FDEBEA",
"cX c #F5E9E8",
"vX c #FFF3ED",
"bX c #F4F8EB",
"nX c #EBECF3",
"mX c #FFE4F2",
"MX c #FEEBF3",
"NX c #FFE4FA",
"BX c #FFECFE",
"VX c #F4EAF2",
"CX c #F3F4F4",
"ZX c #FEF4F4",
"AX c #F5FDF4",
"SX c #FDFCF5",
"DX c #FEF5FD",
"FX c #F5FDFC",
"GX c white",
"HX c #FEFEFF",
"JX c #FEFEFE",
"KX c #FEFEFE",
"LX c #F1F5FB",
"PX c #EDF5EF",
/* pixels */
"GXGXGXGXGXGXGXGXGXGXGXGXGXGXGXGXFXJXJXGXFXFXJXDXJXBXNX`.z.] V A V ] J.hXDXBXDXFXFXFXFXSXJXJXFXGXGXGXGXGXGXGXGXGXGXGXGXGXGXGXGXGX",
"GXGXGXGXGXGXGXGXGXGXGXGXGXGXGXGXJXAXJXJXLXGXDXBXNXk.> ] B F Q k A V V D 6 eXDXGXFXFXGXJXSXJXFXGXGXGXGXGXGXGXGXGXGXGXGXGXGXGXGXGX",
"GXGXGXGXGXGXGXGXGXGXGXGXGXGXGXJXJXSXGXFXGXJXDX5X< x n L R _ ) 4.! L ! m F 1 H.DXZXGXFXGXGXGXGXGXGXGXGXGXGXGXGXGXGXGXGXGXGXGXGXGX",
"GXGXGXGXGXGXGXGXGXGXGXGXGXGXGXGXJXJXFXFXJXDX3X< Y _ 2.2.+.@.@.*.9.+.+.4.K x D 0 BXDXJXFXGXJXJXGXGXGXGXGXGXGXGXGXGXGXGXGXGXGXGXGX",
"GXGXGXGXGXGXGXGXGXGXGXGXGXGXGXGXDXJXJXGXAXrXN d.+.[ &.&.| &.8.| :.;.O.@.m.L G > j.NXJXGXDXJXFXGXGXGXGXGXGXGXGXGXGXGXGXGXGXGXGXGX",
"GXGXGXGXGXGXGXGXGXGXGXGXGXGXGXGXJXDXFXJXxXr.R $.&.;.g | 8.&.| =.g g :.0.{ 5.! K z z.DXDXGXGXGXGXGXGXGXGXGXGXGXGXGXGXGXGXGXGXGXGX",
"GXGXGXGXGXGXGXGXGXGXGXGXGXGXGXGXDXJXJXSXXXm.#.O.| *.=.| *.:.*.:.;.} 9.{ 8.q.6.J Z D 2XJXJXJXDXSXGXGXGXGXGXGXGXGXGXGXGXGXGXGXGXGX",
"GXGXGXGXGXGXGXGXGXGXGXGXGXGXGXGXJXJXAXvXp.o.-.*.:. .7.q.7.<.T d.Y f.H _ 3.q.3.6.v B < BXDXJXJXJXGXGXGXGXGXGXGXGXGXGXGXGXGXGXGXGX",
"GXGXGXGXGXGXGXGXGXGXGXGXGXGXJXJXJXFXDX[.d.2. .*.*.[ -.*.{ f.y.tXzXMX3X{.^ 1.,.6.L Z z z.JXFXJXJXGXGXGXGXGXGXGXGXGXGXGXGXGXGXGXGX",
"GXGXGXGXGXGXGXGXGXGXGXGXGXGXJXGXFXLX1X].J.R 1.$.#.M.%.%.1.Y kXcXnXO . 2X}.d.,.<./ v G 1 fXGXGXGXJXJXJXGXGXGXFXGXGXGXGXGXGXGXGXGX",
"GXGXGXGXGXGXGXGXGXGXGXGXGXGXJXJXnX9XZX1XgX{.Y p.h h j a a.g.rXMXO o . X @ m.T M.4.P v M v.JXZXJXGXGXGXGXGXGXGXGXGXGXGXGXGXGXGXGX",
"GXGXGXGXGXGXGXGXGXGXGXGXGXGXJXJXL.o O   gX|.i.-X*X*X+X;X).r.rXxX3   X + + Y M.g ,.P J F , DXGXGXGXGXGXGXFXDXAXDXGXGXGXGXGXGXGXGX",
"GXGXGXGXGXGXGXGXGXGXGXGXGXGXJXJXW..   : 7 = + X C.&X,X&X=X;X~.pXcXv.n.i.u h M.g +.U J c D fXGXFXJXGXGXGXGXGXGXGXGXGXGXGXGXGXGXGX",
"GXGXGXGXGXGXGXGXGXGXGXGXGXGXJXJXZX5 3 iXU.A.~.Z.&X&X$X$X>X$X<X%X:X;X;X#X+X).B.s #.L J A 1 _.ZXFXGXGXGXGXGXGXGXGXGXGXGXGXGXGXGXGX",
"GXGXGXGXGXGXGXGXGXGXJXGXGXGXJXJXGXZXl. X<X$XoX=X+X,X&XOX&X,X>XOX=XC.@X+X+X).F.(.R H Q A V H.NXDXJXJXFXJXGXGXJXJXGXGXGXGXGXGXGXGX",
"GXGXGXGXGXGXJXJXGXJXJXJXJXDXDXZXDXdXy.!.;X*XS.+X=X+X,X=X&X+X$XZ.oX&XF.F.D.F.(.(.R ^ c A A c.hX5X|.|.3XyXkXMXZXZXJXJXGXGXJXGXJXGX",
"FXGXJXFXFXJXJXDXDXJXJXMXMX{.b.x.s.s.R f.p. X;XS.&X&X=X+XOXS.OX,X+X+X@XF.F.^.!.R _ J C A Z * C s.d.E d.d.( Y g.wXSXAXSXJXJXJXJXDX",
"JXGXJXGXJXFXDXJXJXBX3Xr.s.f.f.R m.p 1.R f h.B.-X#XS.S.oX,X+X,XOX,X#XF.^.j j d T 6.l Z c Q e ! 3.[ :.O.$.*.5.R s.U.vXJXSXJXJXDXJX",
"DXJXJXAXSXAXSXxXfXr.^ ) 2.} +.#.+.p #.p d a.j N.-X=X+X>XOX$X,X=X*X^.N.j g g O.<./ ! C b c Q ~ 7.-.@.O.9.7.{ 5._ ^ 4XMXZXGXFXFXGX",
"JXJXSXJXSXSXZXtXs.m.5.q. . .-.@.+.+.E r r E $.a.h /.*X*X+X*X*X).h.a.M.j g g 7.<.l ' v m e ! { 7.[ 9.$.,.<.3.0./ 1.s.NXBXGXFXFXFX",
"JXSXJXbXSXvXkXs.` ,.<.*.8.w.g -.$.I 1.r i m.2.U u r.a a a.s j E +.5.E R m.d 6.6.e f.b k P +.9.8.7.3.2.` R ! ` _ e._ z.DXGXFXFXFX",
"ZXSXJXSXJXxXs.s.) / 4.2.@.[ | :.$.1.1.P H L <.P y $ a ) R R m.R ,.m.( e @ ( / t e ^ y P ,.@.&.&.} U H G b y.s.b ^ ^ = R.R.LXGXFX",
"GXGXFXJXDX3X^ c.^ b M b H $.$.@.*.+.t U >.l q.~ Z x c @ # & & * & @ @ $ y ^ L P m H i <.$.*.&.@.U e F {.BXZXZXmX5Xk.MX7X].ZXJXGX",
"FXFXFXVX7X= c.Z z 4XrX4XB.d.+.$.@.9.<.,.>.6.>.>.J G v c B & % % % u N m y H R P I t <.<.*.[ :.@.J F z {.DXJXJXJX9XcX9X8XL.sXDXJX",
"FXFXFXaXVXmX1 G.BXDXJXZXgXR +.@.O.:.:.[ <.2.I ,.P ! _ _ ! Q L L ! ) 5.T t m.i U p } 7.<.$.@.$.+.K B ] _.DXGXFXGXGX].VXlXeX2XsXDX",
"FXFXFX7XsXqX2XmXDXGXAXZXxXf.,.-.g &.&.-.:.$.9.I I } >.3.{ <.5.2.{ +.@.7.+.+.+.i {  .7.*.O.@.@.+.Q A A _.DXFXGXGXFXjXlXBXMX'.H.DX",
"GXGX9XjXMX'.'.MXJXJXFXSXvXr.+.=.X.X.X.;.o.o.o.} 9.+.+.0.@.O.g -.@.$.7.[ 8.O.#.T $.-.*. ..... .2.^ S S _.DXGXGXFX9XCXcXjXjX1X9XsX",
"JXjXcXVXzXeX].JXJXJXJXSXvXb.1.=.w.....&.O.$.T !.R T m.+.:.-.:.O.*.<.$.I M.a.m.W @.*. ...X.w...3.Q A S 5XDXGXFXGXFXnXjX6XjXE.sX'.",
"JXT.].MXfXeX2XfXGXGXJXSXSX-Xd.7.{ 7... .*.$.) }.`.r.p.( T o.O.:.$.1.d.f.N .XtXp.+.*.&.=. . ...7.Q A 1 NXJXJXJXGXJXGX9X7XnX9XJX1X",
"jXjXLXW.fX1X1XVXJXGXJXGXAXAXN ,.<.0.[ 8.@.} E B.kXiX Xg.s.s.Y R L Y x. XkXtX.XW $.&.=...*. .*.<.J A 2 DXDXJXGXFXGXCXDXjX6X9XDXDX",
"E.E.E.VX1XW.LXJXJXDXJXJXDXZXB.( <.@.[ -.-.$.-.Y tXkXdXxXkXkXkXdXzXzXxXxXrXrXY ) @. ...&.@.:.-.+.Q V H.DXJXGXGXFXJXJXGXDXDXDXFXFX",
"E.DXE.1X1XaXFXFXJXJXJXJXGXDXgXs.#. .-.O.o.O.:.1.x.dXxXcXPXjXcXxXcXxXcXxXkXM ) $.*.=.=.| *.<.+.L b 1 gXJXGXGXFXJXAXJXDXDXJXJXFXFX",
"FXGXE.jXW.JXJXGXJXJXDXJXJXDXZXl.m.O.[ -.&.:.@.+.1.s.tXxXcXjXcXcXcXxXrX Xp.R +.:. .&.....8.,.4.m < k.ZXJXJXGXFXFXGXGXJXJXJXJXGXFX",
"GXFXjXGXCXGXFXAXJXGXGXJXJXZXJXrXY +.;.=.| -.-.@.*.m.Y b.tXkXdXdXrXXXy.d.T $.&.-.;.&...8.} } L M 7 fXDXJXGXGXAXGXGXGXJXGXJXGXGXGX",
"GXGXJXJXFXJXJXJXJXGXJXJXJXJXZXDXb.d.{ ..| &.-.| [ $.W E a.R ( d.R d.<.@.=.&.| &.[ *.7.3.>.! n < I.JXJXDXGXFXAXGXGXGXGXJXGXGXGXGX",
"GXGXLXGXJXJXJXGXGXGXJXJXZXJXJXZXxXr.2.8.7. .| 8.-.O.9.-.&.0.{ <.$.8.=.| =.=. .[ 7.2.2.>.! Q < j.MXMXJXGXGXFXGXFXGXGXGXGXGXGXGXFX",
"JXJXGXGXJXJXGXGXGXJXJXJXDXGXGXJXSXtXp.T 7.8. .*.-.-.&.| X...@.-.O.O.| &.*.*.*.0.+.5.,.J Z F , BXJXJXJXJXSXGXGXGXJXJXJXJXGXGXGXFX",
"GXGXJXDXJXGXGXGXJXJXZXJXGXGXDXAXJXxX{.f.3.{ { *.| | &.=.X.| ;.[ :.;.:.-.g @.9.} 6._ J ^ x 1 BXJXBXJXJXJXGXFXFXGXJXJXJXGXJXGXFXGX",
"JXGXJXGXJXGXJXFXDXGXGXJXDXGXGXFXSXJXAX_.( <.<.<.=...=.| *.-.O.:.:.| | 7.7.<.4._ J K v c G.NXDXJXGXDXGXFXGXGXDXFXJXJXGXJXGXGXGXGX",
"GXAXJXDXJXJXJXGXGXLXJXJXGXGXGXDXFXFXJXMXn ! / 4.9.q.<.7.+.$.<.@.<.7.<.<.<./ K n Q J A J.NXDXDXGXGXGXFXJXFXGXGXGXJXJXGXGXGXGXGXFX",
"GXJXJXGXJXJXGXJXGXGXGXGXGXGXGXGXGXGXJX2Xx K m Y Y ) ) 1.4.,.4.6.6.4.! L J v b C Z v Z z BXGXAXGXGXGXGXFXGXGXGXGXJXJXJXJXJXGXGXFX",
"JXGXJXJXJXJXJXJXGXGXGXGXGXGXGXGXDXJXJX9 S c z - z F c m K n K m n n b m F D < > V Z Z D zXJXFXFXFXFXGXGXGXGXGXGXJXGXJXGXGXGXGXGX",
"GXGXGXGXGXGXJXGXJXJXGXGXGXGXGXJXJXDXDX0 S F I.DXDXqXl.2 < > D < 1 1 , 6 I.gXDXBX6 D V 1 DXSXJXJXGXGXGXGXGXGXGXGXJXJXJXGXGXGXGXGX",
"GXGXGXGXGXGXJXJXJXGXGXGXGXGXFXGXDXDXJX9 D z MXGXLXJXBXBXDXgXgXzXNXBXDXDXDXDXJXJXNX, t.j.JXJXSXFXFXGXGXFXGXGXGXGXGXGXGXGXGXGXGXGX",
"GXGXGXGXGXGXJXJXJXJXGXGXGXGXGXGXGXDXFX1X1 0 DXFXGXJXDXDXDXDXDXJXDXDXJXJXJXJXJXDXDX0 3 fXLXFXAXFXGXGXGXGXJXJXGXGXGXGXGXGXGXGXJXGX",
"GXFXGXGXGXGXJXGXJXJXGXGXGXGXGXFXGXGXFXnX= = jXFXGXCXGXJXDXJXJXJXGXGXGXAXLXJXGXDXsX: 8 nXJXGXGXFXGXGXGXGXGXJXGXGXGXGXGXGXGXGXJXJX",
"FXGXFXGXGXGXJXJXGXJXGXGXGXGXGXGXFXFXLX0XY.Y.P.GXFXFXGXFXFXFXGXGXJXSXAXJXGXJXJXDXP.K.K.uXJXBXJXDXJXGXGXGXGXJXGXGXGXFXFXGXGXJXJXJX",
"GXGXGXGXGXGXGXJXJXGXGXGXGXGXGXFXFXH.q w V.Y.q JXJXGXJXJXFXFXFXGXJXSXJXGXGXGXSXAX4 Q.4 8 9 '.DXJXJXJXGXGXGXGXGXGXGXGXGXGXGXJXJXJX",
"GXGXGXGXGXGXGXGXGXGXGXGXGXGXGXJXDX6 ; %X>X>X7 SXFXJXGXSXSXAXFXFXSXJXGXDXGXGXPXpXW.pX~.t.t.t.DXJXJXGXGXGXGXGXGXGXGXGXGXGXGXGXJXJX",
"GXGXGXGXGXGXGXGXGXGXGXGXGXGXJXJXBX6 n.~.oX~.A.vXGXJXJXSXSXSXGXGXJXJXGXGXJXFXAXbXV.~.b.i.y.6 JXGXGXGXGXGXGXGXGXGXGXGXGXGXGXGXGXGX",
"GXGXGXGXGXGXGXGXGXGXGXGXGXGXGXJXLXP.H.A.Y.pXbXJXGXGXGXSXJXJXGXGXSXGXGXFXFXFXAXbXbX0XR.A.U.7XLXFXGXGXGXGXGXGXGXGXGXGXGXGXGXGXGXGX"
};
