/* XPM */
static char *_63a131ee6f743b2b58bc8f6a724dae8MaYU0iEn2lFT191b[] = {
/* columns rows colors chars-per-pixel */
"128 128 16 1 ",
"  c #0C0A0C",
". c #444244",
"X c #242624",
"o c #5C5A5C",
"O c #4C4E4C",
"+ c #1C1A1C",
"@ c #343634",
"# c #4C4A4C",
"$ c #6C6E6C",
"% c #141214",
"& c #444644",
"* c #2C2E2C",
"= c #646264",
"- c #545654",
"; c #242224",
": c #3C3A3C",
/* pixels */
";+++;XX;;X**XX*****X*;X;;;XX***:**:@*:**X****X+;;;+;XXXX**;;**;+;X*XX;+;**X;+;;X*XX*:@***:@:****X***XX+*;*;;**++%%%%+++;;;+;+;+;",
"X++X;*;+X*::::::::::::@XX@@:::::::@.::::@*:*::@X;**@;X*X***;XXX+X;**;X+X*X+X;X*@XX@X**:**:@**@*:*@;*@*;X*@**@*+++X*:@:@@::****X@",
"X;X+X@@:@*:O:*@@:::::@:*:@:@:.@:&&.#&:@:@:*:::@:@@::**X;**XX;X;+;XXXX**;;+;;+;;*X****:*X;***:*X::@;*X;;XX;*:**++XX::@:@:*:@@;X*:",
";++*@:::.##.***::@:&::*::@:@.:@&###:.::@@***:@:::@@.:*++;+;;;@;++**X@**@;;+X;+X;X*;@@*:::::**;;*@**;*XX@;X****X%;*@:@:@@::@**:XX",
"*+*:**@..:*X*:::::@:@@@:@:@::::.#O.@::::::*:@::@:@@::*++X+%++;X+++;**X*;*X++X++X*@;;@*;*:::;+;;;**;;;;;+*XX@**;+@:@:@::@:&@***X*",
"*@*;;@:.@*XX*.#::@@:@:@@@:@&:::&.@&::&&@::*:::&&:@:@:*;;++;;;;X;X*X***;**X*++;;;*X***:*::****;***@;+;;++X*@*@;;+*::@:@:&.@::XX*@",
"**:X*:O#:@*::..:****@@@*:@::.&.&:&.&:&.&:@::@::.::@:*X;+X;X*XX;+;+XXXX;;@*XX+X;XX;;**@@****@;;@*;;;;XX;;;****;;+@@:@:*::&:.*;**:",
"*:*X:..:*;*::@@***@**:::@**:&...@#O..&:&.:@@::@@@@::@*++X;XXX+;X+++@**;;;*;X;;;;X;;;*::@*@****;;;*::*:@@*;;;;*++@:@:*:@:&::X@*X:",
"****:.@X+X@:@@@XXX**:@.@:**:::&@@::&@:::@::@&:@:@:@.@*++**@;+;;;X++;XX*;;;X*@;XX;X;;*:@:*;;;X*;X*:@@*:**;;;;;;;+**::@@:&.&@:***:",
"X:::..X+*:.::@*X;X*:::@:@*:::@::@*@:@.&&:@:::::@:@:&@X++*@;;XX;;;++++X@;**X+;*;++;++**;;++;;+X;*:;;%+*;*;X;X;;;+*::@&.O:@@@:::::",
"**..&:*@&.&:@*;++*:*@:.:::@::@&:::&@:&.&&@&&:&:@@:::#*X++;*X*X+X;XX*X;***@;X*@X+X++*:;+++X*;;;X*X++++%+XX*;*X*;+::::@**@**:.@;*:",
"*:.#.@@&..:@*X*XX***:::@@@:::@&&&&:&:.O#&:&.::@:@@@.&*;%XX;;*X;;X**X+;*@**@XXX;;++*:*+++;@*++;;++++++X+;::::**@+*:::XX**::.X;*:*",
":.&**:&..:@:*::******:@:::@@::...&.&.:&&::::::@*@@:.@@*;;XX;;;;;;*X;X;**@**;@;++++*X*++X;X;%+++;++X+X;;***;;*:*;X::*X*X*::*++;;X",
"O.@*X:@@::@@:*:::**@**:@@@*:@.:&...@:&.&@&:::@:*:@.&@*X;XXXX;+X*X;**X;@@***;;*+++X*X;+**XX;%+XX+++XXX*X;;+++;;;;@@*X;***X**+%X**",
".@*...@:&@:**:@@:*XXX**::@:@:::.&.&&&&&:::@*@*@@@:@..*X;X;;XX;;;*XX*****@*@*@;++X*@*****+;++X*XX+X;X**+%++*X*;XX::*;X@X;+++%+**.",
"@O.&#.:::*@*:.@@:*X*;@@@*::@:&#-O&O-#O.:::@:@@***X:.#:X;;;X*X*X;*X**X+;*;*;**;++**;++++;+++;++++X;+X@+;+%+*X*@X+@.@***;+++%X@**:",
":...&:&O:*@:@.:@::*;@****@:@:.&#.O#o.:&@@@*:@*@X*:*@:.*;*@;;X;+X*;@;;;;*@**::::*+@*;X;+;++***XX+;X;**;++++++;**+:.@**X******X*X*",
"&.::&...:::@&..::::***::@:::.:.&...&..@X@X**@X****:@:.*X**;+*+;;X+;;;@:@@:::*@*::++;;+XX++X@*X*****@;++++XXX;;*+&:;+@XX**XXX;*:.",
"::&..@::::::&.&:.::*:@::::::.:&@::@@:@@:**XX**XX**:.#:X+++X;;;;;;;*;***:@:@*++**;;++++X;XXXX***:*;;*;;+XX***X+X;*:@@@X**@;*:::..",
":&&:@::::@@::&:&::@*:@:.....&..&@@*:@*:****:*;XX***:@:X+X+;++*+X+**+++;++;@:@@*X;X;XX**X*X*:*::*X+;X@**X;X*X;X*XX:.::*;*;;:::.:@",
":&&:&::::::@&&&.&.::*:..:..::&..:*@@@@@:*@:::X*@*::*X:*+;;++XX;+X*@@:@*::::****;*;;**@**@:*::@:@*X*XX**;;X*****+:#:*XX+;;*@@:.::",
":@:&.&&::::@:&-:.&::::.::::&.@&.@:@@:@**:@@***X@*:.:*:*+;+++++X***@@;@@::@***++++++X***:*:@***@*;**XX*:*+*:**:*;..*::;X:@::::..&",
"*::@:&&:::@@@&...&&:@:::::::::&@*:@:@*X*::**::@@:@:@*:*+;X+X*X+*@@*;+X***:XX+++;;++X****:@@*;;;;;*:****@;*:**:**:**:;+*:@:@@:.:@",
"&:@::&.:@:*::@:.&@:@*::::::::@:@@@@*X:::@;*:*@::.@***:*;;X;***@:@**;;;X***;+++;*;++*@;%+**+;;;+X;*:*:*;;;++****XX:@*+X::@@:@::.@",
":&O::&.&:@*@@:::@:@@**::@:@:@@@:***@*:*****::@@.:@::::*;**X;*@&&::*@XX@*;++++***;X++%%+X;*+;;X;;@*:*:;;;X+++;*:*X**+;**::@@:::&&",
".&#&@&..&:@::@&@@:*@::@:@:@.:::@@*:**@****@:o:.:@@@@@.:;**X*@&.:@X+;;**+;;++@*@***+++++;*;;X;;***:****X;;X;X+X:*@:;+*:::@:@:....",
":&&...&@&&@:@@::@@@@::&:@@@@@&@@****:*X@;X:..::@.::::.*;:@*:*:@*@;+++;;*XX;;;*;;*@*+X**@+*;;+@;;*:*;*:X;;;**@*:X:*;*+:.::::@::&&",
"&.O.O..:@:@@@*::&:::@@:@@*:*@:::*XXX*@**@@.::@:@:@::..*X*:*@:;;*@;+X;*X****;++;***XX:@@**;++;;;;:@:*:**@;;@:@::X:**;X:&&::*@::&.",
"@***:@@@@*:*@**@@***:@@**X**@**@**@*@:::@:@:**@::::.&#:::.:::@:::@:*@@::**@:**@:::**:@XX*@*@XXX*:*:@*:***X;****XX*+X*:@@@*X*:@**",
"XXXXX@;+XX*;;X@XX;X;*XX****X;XXX**@:**;*;@**X::@:*:@::.:::.@::@*@&.*@**;***XXXX;XXX**::XX***;XX;X;*;XX;;X*;XX*X*;X;;;X;*XXX;+;++",
"*::****:X+++;*X;;;;+X+;X;;;;+;;X;;;;;;+++;;*;:+%+;X**:*@&O.****;X;+%%+*::::##oo##.Oo.**X:.::*****:*X;;;;XX:##.#.#.:@:..:::XXX*X*",
"*:**:***;+;X*;X*X**;+;XX;;;;X;X+X;X;*;XX;X;;*:XX***::*:.##:@:@***XX;X*:::.oooo=o#oo#*;*:.:@*X*:*:::*X;X**;*:#.##.@**:&&.:@X;;XX;",
"***::*X@;+X;X;;XX*;XX@X;+X;;;X;;+X;;X;;;X;;;X.;;;:::***:@@*:@@:*:*:@:@:::###--o-##o::;@..:@**:::::::*:XXX+XX*X:#@X**:.&.&.;++++X",
"X@****;+%+;+%+XX+;X*X;;+X+;X;XXX;;*;;;;X;;X;*.;+X:::::*@*@@:@:@:@:::@:...&-=$o##&#.@:;*.:@:*:**::.::::X*;*X:::@*X::*.....:++%X*X",
"XXXXX;+++++%++X;X;X*XXX***XX*;XXX;*X;*;;*X@X@:;X;******::.:@:::@::::.#&.&-ooo-#.:#..:;*::*:::*:@::@@::*****:..#**...-&&&.:X++;*;",
";**;*;;++XX++XXXX*;;X@**X**X**X;X;XX;**XXXX**:;+;*X***:..:@:@@@:::&:&#&O-ooOo-:&@OO.*+@:@:@@:@:..::::@*X@;*:::.:::.#o###O.+++***",
"*;XX++%%+X;+X;**X;X;**::*:******;;;;;**;;**@*:;;XX@::...@:@:@:*@:&@&#O-Oo=-O-O.&:&#O.;*@:@:@@:#..:@:@::****:::.:@*:.#-O##&XX*@**",
";X+++%%++++%+XX;;+;*****:@**@*X;;;+XX@;;X***;*XXX*:::..@:@::@:@&.&O###-o-oo-O..::...:XX**:@@@:.@:@::::*XX;*@.##.&::@&.@:.-XX@X;+",
";++++++X++X++X*XXX;**@***:*@@*@;X@;;:;;*X@;**:X**X*::.::::@@:@.&O##OO-O-oO-o#:&@@&.&@X*:@@:::#.::**@:&*X*;*.##-#.O.O:*:O#OXX*X;X",
"X;++XXXXX++XX***;;XX******:@****;+++;+X;;**;::*@*XXX:.:@:@@@::&.##OOO####.&.&@:@:&&&*****::.#o&:@::*:@:**;*###o-O##--O####X;X@;X",
"*++XXX;++%+XXX;XX;**X@*:********;++++++X****:.*;;;*;:::@:@*:::&.O#O#--&.:&.@::@:::@****::@:#-O.:::*@:@::*;*.##O-#--o-o#O&O;+;X;*",
"*;X;++%%%+X*XXXX;*X*;**::**;*;**;+++X;X;;X@;*:;*;;XX*:::::*::&#&##&OO:.&..&::@::::::@***:#Ooo#O&::@@&::::;;:#.#O#oO-=-#O--X;@*;X",
"X;;;+++%%X**X@XX;X**@;*;*;;***@*@X++X;X;+X;;X@;;;X@**:::::@:&.O#OO##&..&&.&:@@@@@@::@X::::@::.&::@:@:*:**X;:&.-#O-o-O##-o-+;****",
"X++++%%%+XX*@*X;X;X**:@**;@*****;+++X+X++;;;*@;+X**;*X@:@X@:&&&&O.::::&&&.:@@@:@:@****:X+;+XXX+++XX+X+%+;X@..#-o#-o-ooo--O++X**X",
"@++X+++++XX;X*;;@*X@*@;@*;;;;;@;;++*;;+++;;+:.;+;**;;;*:*@@@:::&#&.:&&.&:.:@*@*@**;X**X+;*@*XX@**:*::+XXX;*.#O#.O-oooo-o-#++*X;*",
"****XXX*X*@*:**:**@*:**:*::@::**@*X***XX*@@@:.**:*@@:::@:@::&&&#&#&&.@**X@*@@***X**:**;+:@**::@*:@#&*X*;%;*###&.#oo--O#-o#X+*;;X",
":*@@X*XXX*:@***X**;@*;;;;*:**:;**::::::@@X***:::X***:::*:*X@**:**X@**@*X*XXX;;;X;;****XX.***:::@:..X+;X+%*:O###-o-O#O.--#.X+++++",
"@+*::@@*@:&::.::.:@***;***;***;;;;X*:X******:::@:::*@@****X;;;X*::@:@:**:**@XX*X***::*;X:::*::@:..@**XX;+X:##O-oO##..O-O#:;X:@@:",
":@.@@:*@:&@:@:.:***;;;;;:::.:@*@*::@@:.:@**..#:&##.#.#..*:.:::&.##..:.:::::***:*:::*:X;;:@:X*@*@::@@X+;XX+X#---O.&&O##&#.OX*&::&",
":*@***:@@@@*@@@*@:@@;;;*@@::@:::@**:..*+;*:#..###....##.:.O#&&.....:..@::@***@*:*:@:.;+X:*:@****@@*X+XX*;XX-ooO#&&O-O##&&#XX:*:&",
"@**::@:*:*::@@**:@****;*::@*:...:::*:X+X:::.&.&#O##..#O#O####O#&.:::&:&:@::******@::@;+*:*:@:*::@*X*XXXXX+*#O.&#O-o##O#...;+++*:",
":*:****::@.@*::*XX@**;**:@*:@::::@@@*X*:.:#o##...&.O##Oo-#O.##:.::::::@:@@::@:*@@@***;;@*:@*::**:***XXX;X+*-o.###-o#&.&.:&;XX*:*",
"@*****X::.:**:*XX*;;@*;@*;;@**.*::::..:..&###O.&..:.&#-##..&.&.&.&@:@:@@::@**@:@*****X;*:@@*@::@XXX@**;;X;:--#O#O#.&O#.:::+X@:::",
"*X::*XX*:@::@****;*;;**;;;*;;:*::::@:::&##.&...&:&...&.&#&@&O.@:&.::::@:@@::@@:@****@;+*.:@:*::*X@***;;*;;X#O-o-#O.&::::::X*::@@",
"@X**;X:*:@@**::****@*.:**:*@@:*::::::::#.#.:@@@::&.&.@&..&@&#O&.@&::::.@:@@::@:@@**:;++:.@*:::*;XX***;X*;+*#&#O#&##:@@&&&.XX:::#",
"****;**@***XX******:*:@::@:*::@**:@::*:.&.:@@:@@::&.O&.@&:@:.#@:&::::::::@::@*******@;;*:::@;X*X*@;;;;@*;+*o###O#&&.&O&&@:XX::&&",
"X:***:***@X*X**;;;;*:@:@*:.@@@:@:@@@:;:..&@@:@:@:&...@@&.::::@:@::&&&&&&:@:::*@;**@*;*;*::*;;X;**;;@***;*+*##&##O&:..&.:@@**:&&@",
"**:;**@;@;;;;;X*;;*;**::@:@:.@*:***:@*.:@:@:@:*::&.&@::@::@@@@@:@@&.&&.@:&:@****;***;;**X*;X*;;X*;;*;**@*+XXX*@**@@**@@@*:*@::*@",
"**:*;@;**;*:***;X*;**:*@*::@@@*@*@*@:*:@@:@:@@@&::@::.:@@@:@@@@@:::&&@::&&@:@*@:****;;+%++++;;;+%+++;+%+%++%+++++;;X;*X;;XX;;X;X",
"@***;*@;@*:*:*;*;;****;;*:@*:@***:*@@*:@::@::@:::@@@:@@::::::::::::&@:.:&.:@@**@*:;;;*+%%+%%+%%%+++%%% %%%%%%%%++%%%++;;;X;++;++",
"**XX@*:@**:@@@;;X@***;@*;*;@::****::@::.:::::::@*@@@@@@@@@::::@:&::@@@@*::@@:*@:**;;**++++++++X+;X;;;;+;++X+++++++++XX*XXXXXX*X+",
"X+;*:*@*::@**:*@*@**:*:**;@***::***:@*::@@@@@:@:**::@:::@:&::&::@::@@::@@@@:**:@:*;;*;+;X++XXX;X;;+X++++;;X;XXX*%%++XXX;X*;;XX%+",
"@+;**:*:@:@**::@*;*;*;;*****;*****;*:;:::*:@::@:*:@:::@@::&&&:::*@.:@:@::@:@::@@:;;:*;++;+X**X**XX;;X;X;X;+X;X*X+++++++XX*;X*+%+",
"X;*::**:*;:::@*:;;;*;*;****;****@:*;;+::*@::&&:@@:@::@:@::&..&:::@:@::@:@@@::@****;:*;+;;;X@**@X;X@*X*;+X+;XXX**X++X+X;;X;++;;X*",
"*@:@*;****:@**;@;*;*;***@:*@**@*;::*+;*:@:.&.&@:::@::@@:@@::&.::@@*:@@.@@:@:@:*@;;@@:;+*;+;X**;;;***;X;+X+*X++X**XX+X;X+X+XX;+**",
":*:@*:*:*:*:**@:*;***@****::::;*;****@:.:.:..::::::@:@:@@@@@@@:@*:@@@@@@:*@@@***;;;;@;+*+X;XX+X*+X*@*+*X;+**++;@XXX;XXX;;XX*;XXX",
"@:::@*:*:***;**:;;;@*:**:*:@***:::*;*::::@:@@@@:@@@@@@*:@:@:@@:.@@@:@:@::@@@**:*;X*;*+++X;X*;+;;X;;;;;*XX***;++X++;X;X*X**X;X@*X",
":::@:**:*:**@*;;;;*********;***:::::**:::@:@:*::@**@@@*:@@:@::::@@:@::::&:*:*X*X*@:.:+;;X*+;;++X;X+++;;XX*;;X++X;;*XX*@***XX*:*+",
"@*@:*****;;;;;;**;*:**:***@**@::::*;@*@:@:@::@*@:*@****@@:@&::::.@@@@@:::@@**X@*::.-*++XXX++++X++++X;X+;X*;+X++;+X*X***XX*XX**++",
"*:*XX@*;*;*;@****@;*;**:*;;****:*:;**:*@:**::::@@XXXX@**:@@:.::::&@@:@::@@*:**@@:###:;+;;+;XX+;X+X;;XXXX@XXX%++X+;X*XXX;@*:::X+*",
"*XXXX*;*+;;*:**@***@:***@***:*;***;**:@:***:@@@@@**@X**:@:::.&::::@:::::X*@**:@:...#:;+X;X;*+++;;XXXXX;X;;;++++X;**;**@*:@::**X*",
":;X@*@*;;@:***;**:::::****;**;**@**@*::@*;:@:@:@::****::@::..&&::@@@@@*XX**::@*..##:X++%+X;++;XXXXX@X**;;;X;++X;X******:@:@;XXX*",
"*X;*:**@:@:*;:@*::::*:***;**;*;**:*;:::@;*::@:@@@***@*:@::.&.@::@:@:@:*@XX*@@:*:@:.:;++++X+;X;XX;**XXX*X;;+++X;X;X@**@*@@*;+;X;*",
"*XXX***:@***@::;**:.****;**:*;;@*:;*:::@@::@:@:@:***@@@::::@:@@@*@::@:*@**::*@;:@:::X+XX++X;;;XXX**;;;;X+X+XX;;;X;X***@@*;+;;;;;",
"**:*:;:::***:.:;**:.:::*@*:**@*::::::@@:@@@:@@@***@*@:::.:::::@@@::@**@******:::*.@:*X++X;XX+X;XXXX;;;++;X;;;X;X;X;X;;*;+;;X;X;*",
":**:*@**:@::.:*@**:@@::****@;*::::@*::@:@:@@*****@@*:@::.::::::::@@:*@*:***:::.:*:**;;++X;;+;++;XXXX;+++X;X+;+X;XXX;X;*;+;X;;X:X",
"**::@@**;**::****:**:@::*;@@*:*:**:*@:@::@:@:*@*:@:@*@@::::&&&::::*@*****:::@.#:@:@*X++XX;XXXXXXXXXX;+XX;;++XXXXXX;+;;;;;*X;**X+",
"**::****@;;;;@::::::@:****:*;;*******:@:*@@********::@:*::&.&.::&:@:@:**:..:*:..*:::X+++XX*@XXX;X*;;+;;X;X;XXXX**;;X;+XX***XXX+;",
"@X***@;@:***@*::@@::*:::::*;;@;@::***:@.:::***@:::@@:@@@.....&:::::@:@@*::*XX*:@:***;X++X*X**@**@XXX;;;;+;X*X;XX*XXX*;;X;;*X;+X*",
"*X*@*;@:;**:..@*:*:*:@::::**;**:::*;*::..::::::@::@:::@:..O&..&&::@::@**:X;;**XX::*XX++X;;XXX******;;X;+XX*;**XX;**XX;X;XXX;+;**",
"*X@***::::*::@:*..:....@******::@:*;:.##.:::::::.::..::.#.:.&.&&&:@:@@@*X;;*@XX**:::X+%++;X;***@****;;+X***;**X;;XXXX*XXX*;+;X;*",
"@;:@*:@:@::*:***:...:.::*:*;**:::@*;:.#.:@::::..:@:..:...#..@::@@@@@**;*;;@**;X@**:.X%%++X;XXX***;*;XX++X;X;X**XXXX**XX*;;;+;;++",
"X::*;@@.:**::****:@*:::*@**@::##:::;.##::@@@:...@::.:....O&&::@*@.@@*X**@*X**@**:::@X%+X;;;XX;;;;X;;;;+++;XX;+;XX;;;X;;;X*XX*;++",
"*:::.@..:@*:@***::****;*@*::@:..:@:;:.@@.:::.##.:.##.:.&#.OO::@*@@@:*@***;;;*.::::..*++XX;XXXX;X*;XXX;XX;X;;X++@;;;;;;X;;X;**;XX",
"X*:.:@.@*::@:**@::;@*@;+;*::*:@*:::;:.::#O.:.#&:.##&.::@&::.:@**:*:@*;X*;X*X@*::@:::*%+XXX*XX*;;X@*@;;;;;;X;;;;*;;XXX*;X*+X;@XXX",
"*::::::@:*@***::**:*;@;;**@::::**@@*@*:@##..##..@.:::@::@@@@:**X*:@*XXX;@:*@*:*@@:**;++XXX**X***@@:@*;X+X;XXX;X*X;;X;X**;;*;*X;X",
"@@@::@:**;**;::*;;;*;;;***:.:***:@:*.#o#oo=o#&.&&.@:&::@:@:@*::*X*:*::***::*;X::@@XX*%%XXX;X@*@*@****;;++;XX;;X@**XX*@;X@;;X*@@;",
"X;XXX;;X:*;;@:**;*;**+;;;;*:**:*:**:..#O#O#:@***:@@@*:*X@**@**@*X;*@**X;+;;++;;;;X++;%%X****@**::@*;;X;+X;X*X;****X**@*:*;;X;*@*",
"X;+++++;;++;;;;*;;*;;;+;;;;;;;;++;**;**:*X;+++%+++++++X;XX;;XX;+++++++;%%++++%%%%%+%%+%XX;;*@:::@::*;*;;;;*@**:@*;*;;*;X*X*;*;**",
"*;X;*X*X;XX@**;;;;++;;;;X*;;;;;;;;*;;;;+++++++++++%+X;;X****:**X*:&..:::..O#&.:::@:.@++*X;X@@**:***;*;*****XX::****@;*;;+*;;@**;",
";*;@::@::::.::::@***@XX*;XX*@*@*@***;X**+;X;XXX*X++XX+++**::**X*:::&:::&..@*:::&...#&++XX*****:;***;@*:***XXXX*XX**;++X;;;X;**;;",
";X;::@:@@:.:@@:*:::*:;*;X*;***:@:***@*@;XXX;;X;*@*X@XX+X;X*::::::::.:@:::&*:@:-..:&..++XX::***;;@;;;;;**XX@*@**@;;;;+;*;;;;X*::;",
"+;*@:@@::@::*:******:*;X*;@**:@:::::@:@**X@;X*X@@:*XX*+;;*:@#.::.@::@@:&.@*::&.:&...&+%+X****;*;;*;@**;;*;X@*;;;X;+;+;;;;*X@**;+",
"+X@@@**:::::*:@**;*;*:*@**;;**:*;;*@:@@:;;;**;;X**::@;+X**X*:*..@@@@@*@@X+@&:.&.@&@:&X+X****;;;;;*;;;**;**;**;;;+++;;XXXX:*;**+X",
"X+X:****::@:@@*@;*;***;**;;*;**;@****:*;;;+;*;X;@*:#.+X**XX:*:.:@:*:**+++*:::&::@:&@&++;***;:@;***;*;;;@*;@;**;+;;+++XXX***;;;+X",
"X+X**@*:@:@@:@@:**;;@;@**;@;@;*;**@;*:;;;;*;*X+;**::@+;;XX*:::@@:@@@:XX*:@:::.::::::&+X;;X*@;:**;;@*;;;;;;X;++++++;;;++;X;;;;;+;",
"XXX*****::@***:@*@:**;:****;*;;;***;;;+;;**X*@XX*:***X+X;**;@::*@:@@;;**@:@@:@*@@@@&:+X@***X*@*;;+;;;X;++X;;++++++++X;XXX+;;;;;;",
"XX@*@*@@:@:*X**:***;*;@;*;:@;;;*;;;;;*;+;**:**:X*:::*+;*@*X***@**@**;*@***:@@::.@:@:*+X@@::X@*****@;*;;X**@@X;;X+X;X;X;;;*:X+;X+",
"*XXX*:@@@****X@**;*;;;@;;@*;*@;;@;;;;;*;X:**:;XX@**@:;X***XX;;++++++++++++XX*;XXX*X++%++++;;;+;;;*;;@***;@;**X**XX;;X;X;XXX;XX;X",
"*X*@*:@:@@***;***;*;;;;@**;@***;*;X*X*;XX*@**X@;**:::;+++X+;+;;++++++%%%%%+++%+%%%%%%;+X+%%+++++;;;X;*;*;*@;*@;*XX*XXXX*;;;;X;@X",
"*;*:@@:**;@:@:**@**:*@;@;;@*;;****;***@*@;*@*:*@*::::+%%@::*::@@*::::****@:@@@&@@@::&@::*@@:.:::::@::@@@:.:::@**::@:*:@*X::**;;+",
"@**@:@@***:@@:;*;;@:*****;;;**;;*;**;*;@@@@:;*::@@::@;XX@******@*@@::@@*:@:&:&.:@::&:::@*:&::::::@:::::@::@:**@@@@@@:**X*:@***X;",
"*X:@:**:*****:;*;@:****:;*;**;**;@***;@*******@@*:@:*;+*:@:***:;X:@@:@***:&:@::::&&@*@**:*@*@@:@:::.:::::*:@*:**:@:::*X*****@***",
"+;***::******@*****;*:**;@***;*;*;;@*;;@*;:**;@;***:*;X@:@:@*****:@:@@*:@:.@:@@*@::***@@&*:****:...#....:.::**;@*:@**XX@*@@:*@*;",
"X;*@***:**:*****@;;***;;@****;@;;*;;***;***;*;*;*;:**X*::@::**::*:@*::***:::::&&O&@@@@:@&@::*::.&.......::::*@;*:@***@@@**:*;*@;",
";***;@;;****@:****;;@******;;**:;;@;;*;;**@***:*;**:@**::@***:@.:@:@:@:*::@&O-#..@*::@:@:::&::@@@&::::&.&@::**:@...:@::::@;;****",
";X*@;;@**@*****@**@;;****:********::*;*;;**@:::;*;;:::::***X:@:::@*:****:@:@..:**@*::@@:*:.@@*:**:@@@:@@@:::......:.#.::@****:*@",
";XXX@*:******;*;*****;****@*@:::::@::*;***:*:*:@;*;@:;*:***@*@@**:*@X;X:**:@@*@*X*:@*******:****.@@@:@@*::@:&#..##:.:::@**:::@**",
"XXX***:*;@**;**;*;*;***;*;;;;**:*:@@**@***:*:;***;@*@X;XX*@@*@@@:@;X;**:**::::@***::*@**@***@:***:@::*:@::@:.&#.#..:::.*::@:@::*",
";;*;@;:::****;*@**;**;*;;@;**;*:::::*;;***;*:***;::*:*;X*;X@**:**X;X***:*:.&::*:::@:*::****XX:****:::@:::@:&O&O.O#&.@..::.:::::*",
";*:**;*:****;;;**:***;*;****@*@:::@@::*:::****;*;:@:@*;*@;@;****;;;@*@*@*:.::@:@@**::@@*:****:@:*:::::@:&::&&#.#-:.@:@*:..:::@:*",
"+XX*@;@@**@*@**@**::*:*;@*@**:::@*:@:@:****@****;:**:;;@*;X;**;;*;;X*:*@@..&@:@::::*:@****:*:@::@::&:@:***@::&&.:.:*X**#O#::::.:",
"+;X*:;*::*****;:::*;*:*;;;*@::*:@**::@:**;**:**@;.*:@*;;;*;;;;;*;+*:@:@@::::@@:::@:@*::@@***@:*@:::@::@@*@*::::::@**XX:#..&:.:#:",
"X*X:@**@:*;**:*::***;::;;:***:::@::*:@***;;****;;:*****;++++;;;;+X::..::.::*::::::.@*******@*******:@:@@:*:@:::@**;;;;::.O-..##*",
";XX:@**:@*;@*::@*:::;::*;*:**:*:@@::***:;*;*@**;@:*::*;;+;XXX*@**:@::.#....:::@:@::::*X:@@::@*@*@:*:@@::@@:::@*@+;X*@:::#O&.&OO:",
"XX****:@:**::@:@;:::***;@;;***::*::@:*:***;*:@*;:::@:*;*X@***:@::@:::###..&.&:@:@::@@::@:.::::@:::::.::::@@:@@XXX*@*X::&O#:&::O:",
"XX*@;@@****::::::@:*;;;;;;;*;***:::::*:*::;;*:**:*::@;@;;*@**@::@@:.....&#&#&.:@:&&:::::*@...:.::..:.::::@::..@*@*****...O&.O-#@",
";@**;****:::::;;*:;++;;;++;;:;;***:@::@:::*@;;****:::*:;@*@::.:..:...@&##.&#.:@::::&::@:*****@:@::...::*@@&@::@**:::::..&&.@..@@",
";X*:@**::::::****:*+;;;++;@@:**@**:***:::@**;@**:****:@;@.:*@:@**;*X;;X**X****@*XX**XX**;+;*;*;;****XXXXXXX*@;++++X;;;;X***X****",
";X:@@**::@:::*;;**;+;;;X;X@:@::*:**:::@*:*;@:::::*;;;;*;*@**+++++++++X++%%+X;+++X++XX++++++++++++;+++++++++;++++XX;;;X;;*;++++X*",
"*X:@*;@*******@**;+;*;X@X@*@:@@::**:;::;;;;**:*****;;@;**;;+++;;+++*;;;+++++X;X**;X;XX+*X+++*X*@;%%%+X;+XX@;;;X+::@*:@*X*++;**XX",
";;@:@@;****;;*;*;;;;++XX*;;*:***:@*:**;@;*:***:;**;@**;++;;;*X**;X+XX*X;**XX**@***XX+*:@X;@*X@;;;%++X******;+X*+X*****:;***@***X",
"XX*:*;**:*@;;;;;++++%+;*;;*;***:;*********:*:**:*;:;;@*+;*;;*@;X;+;;X;;X@X;@*X**::X**XXX;;*;X++++;+X*@@@*@*;*;*X;X;:****:;@:**:X",
"X*:**;;;@***;+;;+%+++;;X*;X****::*;*:**;****::*;**;@*;**;;;X@*@;;;@X;;*;;XX;XXX***+X@*XX;@***X;*X+X***:@**;*@**;X*:*:*@:****:::*",
"*X:@******@*;;+++++;X*X;;;;**:::@**;***;;*;**:;;**;****;;++;;*;X****X;XX;X+;XX****:*;X::X:@*:*::*X**@**:X*****X+@*:@:::@::::@@*X",
"*::::;;::**++++++++;;*X++;;**;***:**;;;*;;;**::;*:*:**;;;@;;+;@;@*@*XX;;@*;;;XX****;;X:::**:::****@X***:**@*X**X::***:::::@*:::*",
"*:@**X+;**;;;;;***;X***;;X*;*;;@**;;;;*;;;;;**;;;*;;+;***;;;+;+*@;***;++;**XXX;*@*@;X*********;;**+*XX*;;:;*;;**X*;;*X*X*@**X*X*",
"**X+X*;;@;******:**:*XX@:*:**:*:*;;*;;;;;;;;;;*;@*@*::;;@*;@;X+;;X+;;*;+*XX*;X*@****@*@*X:**:**X*X;X@*@;+*;;;XX*;XXXX****XX*X***"
};
